<svg width="1440" height="343" viewBox="0 0 1440 343" fill="none" xmlns="http://www.w3.org/2000/svg">
<g opacity="0.5">
<line x1="-2" y1="0.5" x2="1438" y2="0.5" stroke="#D9D9D9" stroke-opacity="0.25"/>
<line x1="-2" y1="57.5" x2="1438" y2="57.5" stroke="#D9D9D9" stroke-opacity="0.25"/>
<path d="M-2 115H1438" stroke="#D9D9D9" stroke-opacity="0.25"/>
<line x1="-2" y1="171.5" x2="1438" y2="171.5" stroke="#D9D9D9" stroke-opacity="0.25"/>
<line x1="-2" y1="171.5" x2="1438" y2="171.5" stroke="#D9D9D9" stroke-opacity="0.25"/>
<line x1="-2" y1="228.5" x2="1438" y2="228.5" stroke="#D9D9D9" stroke-opacity="0.25"/>
<path d="M-2 286H1438" stroke="#D9D9D9" stroke-opacity="0.25"/>
<line x1="-2" y1="342.5" x2="1438" y2="342.5" stroke="#D9D9D9" stroke-opacity="0.25"/>
<line x1="56.5" y1="0.998538" x2="57.5" y2="342.999" stroke="#D9D9D9" stroke-opacity="0.25"/>
<line x1="114.5" y1="0.998538" x2="115.5" y2="342.999" stroke="#D9D9D9" stroke-opacity="0.25"/>
<line x1="172.5" y1="0.998538" x2="173.5" y2="342.999" stroke="#D9D9D9" stroke-opacity="0.25"/>
<line x1="230.5" y1="0.998538" x2="231.5" y2="342.999" stroke="#D9D9D9" stroke-opacity="0.25"/>
<line x1="288.5" y1="0.998538" x2="289.5" y2="342.999" stroke="#D9D9D9" stroke-opacity="0.25"/>
<line x1="694.5" y1="0.998538" x2="695.5" y2="342.999" stroke="#D9D9D9" stroke-opacity="0.25"/>
<line x1="752.5" y1="0.998538" x2="753.5" y2="342.999" stroke="#D9D9D9" stroke-opacity="0.25"/>
<line x1="810.5" y1="0.998538" x2="811.5" y2="342.999" stroke="#D9D9D9" stroke-opacity="0.25"/>
<line x1="868.5" y1="0.998538" x2="869.5" y2="342.999" stroke="#D9D9D9" stroke-opacity="0.25"/>
<line x1="926.5" y1="0.998538" x2="927.5" y2="342.999" stroke="#D9D9D9" stroke-opacity="0.25"/>
<line x1="984.5" y1="0.998538" x2="985.5" y2="342.999" stroke="#D9D9D9" stroke-opacity="0.25"/>
<line x1="346.5" y1="0.998538" x2="347.5" y2="342.999" stroke="#D9D9D9" stroke-opacity="0.25"/>
<line x1="404.5" y1="0.998538" x2="405.5" y2="342.999" stroke="#D9D9D9" stroke-opacity="0.25"/>
<line x1="462.5" y1="0.998538" x2="463.5" y2="342.999" stroke="#D9D9D9" stroke-opacity="0.25"/>
<line x1="520.5" y1="0.998538" x2="521.5" y2="342.999" stroke="#D9D9D9" stroke-opacity="0.25"/>
<line x1="578.5" y1="0.998538" x2="579.5" y2="342.999" stroke="#D9D9D9" stroke-opacity="0.25"/>
<line x1="636.5" y1="0.998538" x2="637.5" y2="342.999" stroke="#D9D9D9" stroke-opacity="0.25"/>
<line x1="1042.5" y1="0.998538" x2="1043.5" y2="342.999" stroke="#D9D9D9" stroke-opacity="0.25"/>
<line x1="1100.5" y1="0.998538" x2="1101.5" y2="342.999" stroke="#D9D9D9" stroke-opacity="0.25"/>
<line x1="1158.5" y1="0.998538" x2="1159.5" y2="342.999" stroke="#D9D9D9" stroke-opacity="0.25"/>
<line x1="1216.5" y1="0.998538" x2="1217.5" y2="342.999" stroke="#D9D9D9" stroke-opacity="0.25"/>
<line x1="1274.5" y1="0.998538" x2="1275.5" y2="342.999" stroke="#D9D9D9" stroke-opacity="0.25"/>
<line x1="1332.5" y1="0.998538" x2="1333.5" y2="342.999" stroke="#D9D9D9" stroke-opacity="0.25"/>
<line x1="1391.5" y1="0.998538" x2="1392.5" y2="342.999" stroke="#D9D9D9" stroke-opacity="0.25"/>
</g>
</svg>
