<svg width="463" height="16" viewBox="0 0 463 16" fill="none" xmlns="http://www.w3.org/2000/svg">
<path d="M0.488 12V0.639999H5.208C5.69867 0.639999 6.14133 0.741333 6.536 0.943999C6.94133 1.14667 7.288 1.41867 7.576 1.76C7.87467 2.09067 8.104 2.464 8.264 2.88C8.43467 3.296 8.52 3.72267 8.52 4.16C8.52 4.72533 8.408 5.25333 8.184 5.744C7.96 6.23467 7.64533 6.64533 7.24 6.976C6.84533 7.30667 6.38133 7.50933 5.848 7.584L8.68 12H7.736L4.984 7.712H1.304V12H0.488ZM1.304 6.96H5.288C5.77867 6.96 6.20533 6.82667 6.568 6.56C6.93067 6.29333 7.208 5.94667 7.4 5.52C7.60267 5.09333 7.704 4.64 7.704 4.16C7.704 3.66933 7.58667 3.216 7.352 2.8C7.128 2.37333 6.824 2.032 6.44 1.776C6.06667 1.50933 5.64533 1.376 5.176 1.376H1.304V6.96ZM13.9246 12.16C13.338 12.16 12.794 12.048 12.2926 11.824C11.7913 11.5893 11.354 11.2747 10.9806 10.88C10.618 10.4747 10.33 10.0107 10.1166 9.488C9.91396 8.95467 9.81263 8.39467 9.81263 7.808C9.81263 7.01867 9.98863 6.304 10.3406 5.664C10.6926 5.024 11.178 4.512 11.7966 4.128C12.4153 3.73333 13.1086 3.536 13.8766 3.536C14.666 3.536 15.3646 3.73333 15.9726 4.128C16.5806 4.52267 17.0606 5.04533 17.4126 5.696C17.7753 6.336 17.9566 7.04 17.9566 7.808C17.9566 7.872 17.9566 7.936 17.9566 8C17.9566 8.064 17.9513 8.11733 17.9406 8.16H10.6446C10.6873 8.78933 10.8633 9.36 11.1726 9.872C11.482 10.384 11.8766 10.7893 12.3566 11.088C12.8473 11.376 13.3806 11.52 13.9566 11.52C14.5326 11.52 15.0766 11.3707 15.5886 11.072C16.1006 10.7733 16.458 10.3893 16.6606 9.92L17.3646 10.112C17.2046 10.5067 16.9486 10.8587 16.5966 11.168C16.2553 11.4773 15.85 11.7227 15.3806 11.904C14.922 12.0747 14.4366 12.16 13.9246 12.16ZM10.6126 7.536H17.1886C17.146 6.88533 16.9753 6.30933 16.6766 5.808C16.378 5.30667 15.9833 4.912 15.4926 4.624C15.0126 4.336 14.4793 4.192 13.8926 4.192C13.306 4.192 12.7726 4.336 12.2926 4.624C11.8126 4.912 11.4233 5.30667 11.1246 5.808C10.826 6.30933 10.6553 6.88533 10.6126 7.536ZM31.9408 12H31.1408V7.36C31.1408 6.304 30.9754 5.52533 30.6448 5.024C30.3248 4.52267 29.8288 4.272 29.1568 4.272C28.4741 4.272 27.8661 4.51733 27.3328 5.008C26.8101 5.488 26.4421 6.10667 26.2288 6.864V12H25.4288V7.36C25.4288 6.29333 25.2688 5.51467 24.9488 5.024C24.6288 4.52267 24.1328 4.272 23.4608 4.272C22.7781 4.272 22.1701 4.512 21.6368 4.992C21.1141 5.46133 20.7408 6.08 20.5168 6.848V12H19.7168V3.68H20.4688V5.664C20.8208 4.98133 21.2741 4.45867 21.8288 4.096C22.3834 3.72267 22.9914 3.536 23.6528 3.536C24.3461 3.536 24.9114 3.744 25.3488 4.16C25.7968 4.56533 26.0634 5.10933 26.1488 5.792C26.5434 5.04533 27.0128 4.48533 27.5568 4.112C28.1008 3.728 28.7194 3.536 29.4128 3.536C29.8714 3.536 30.2554 3.62133 30.5648 3.792C30.8848 3.952 31.1461 4.192 31.3488 4.512C31.5621 4.82133 31.7114 5.20533 31.7968 5.664C31.8928 6.12267 31.9408 6.64 31.9408 7.216V12ZM37.8934 12.16C37.3067 12.16 36.7627 12.048 36.2614 11.824C35.76 11.5893 35.3227 11.2747 34.9494 10.88C34.5867 10.4747 34.2987 10.0107 34.0854 9.488C33.8827 8.95467 33.7814 8.39467 33.7814 7.808C33.7814 7.01867 33.9574 6.304 34.3094 5.664C34.6614 5.024 35.1467 4.512 35.7654 4.128C36.384 3.73333 37.0774 3.536 37.8454 3.536C38.6347 3.536 39.3334 3.73333 39.9414 4.128C40.5494 4.52267 41.0294 5.04533 41.3814 5.696C41.744 6.336 41.9254 7.04 41.9254 7.808C41.9254 7.872 41.9254 7.936 41.9254 8C41.9254 8.064 41.92 8.11733 41.9094 8.16H34.6134C34.656 8.78933 34.832 9.36 35.1414 9.872C35.4507 10.384 35.8454 10.7893 36.3254 11.088C36.816 11.376 37.3494 11.52 37.9254 11.52C38.5014 11.52 39.0454 11.3707 39.5574 11.072C40.0694 10.7733 40.4267 10.3893 40.6294 9.92L41.3334 10.112C41.1734 10.5067 40.9174 10.8587 40.5654 11.168C40.224 11.4773 39.8187 11.7227 39.3494 11.904C38.8907 12.0747 38.4054 12.16 37.8934 12.16ZM34.5814 7.536H41.1574C41.1147 6.88533 40.944 6.30933 40.6454 5.808C40.3467 5.30667 39.952 4.912 39.4614 4.624C38.9814 4.336 38.448 4.192 37.8614 4.192C37.2747 4.192 36.7414 4.336 36.2614 4.624C35.7814 4.912 35.392 5.30667 35.0934 5.808C34.7947 6.30933 34.624 6.88533 34.5814 7.536ZM55.9095 12H55.1095V7.36C55.1095 6.304 54.9442 5.52533 54.6135 5.024C54.2935 4.52267 53.7975 4.272 53.1255 4.272C52.4428 4.272 51.8348 4.51733 51.3015 5.008C50.7788 5.488 50.4108 6.10667 50.1975 6.864V12H49.3975V7.36C49.3975 6.29333 49.2375 5.51467 48.9175 5.024C48.5975 4.52267 48.1015 4.272 47.4295 4.272C46.7468 4.272 46.1388 4.512 45.6055 4.992C45.0828 5.46133 44.7095 6.08 44.4855 6.848V12H43.6855V3.68H44.4375V5.664C44.7895 4.98133 45.2428 4.45867 45.7975 4.096C46.3522 3.72267 46.9602 3.536 47.6215 3.536C48.3148 3.536 48.8802 3.744 49.3175 4.16C49.7655 4.56533 50.0322 5.10933 50.1175 5.792C50.5122 5.04533 50.9815 4.48533 51.5255 4.112C52.0695 3.728 52.6882 3.536 53.3815 3.536C53.8402 3.536 54.2242 3.62133 54.5335 3.792C54.8535 3.952 55.1148 4.192 55.3175 4.512C55.5308 4.82133 55.6802 5.20533 55.7655 5.664C55.8615 6.12267 55.9095 6.64 55.9095 7.216V12ZM62.2141 12.16C61.5635 12.16 60.9555 11.9893 60.3901 11.648C59.8248 11.296 59.3821 10.8587 59.0621 10.336V12H58.3261V0.32H59.1261V5.488C59.5208 4.912 59.9848 4.44267 60.5181 4.08C61.0621 3.71733 61.6861 3.536 62.3901 3.536C62.9875 3.536 63.5155 3.65867 63.9741 3.904C64.4435 4.14933 64.8435 4.48 65.1741 4.896C65.5048 5.312 65.7555 5.776 65.9261 6.288C66.1075 6.8 66.1981 7.328 66.1981 7.872C66.1981 8.43733 66.0968 8.98133 65.8941 9.504C65.6915 10.016 65.4088 10.4747 65.0461 10.88C64.6835 11.2747 64.2621 11.5893 63.7821 11.824C63.3021 12.048 62.7795 12.16 62.2141 12.16ZM62.0541 11.44C62.5448 11.44 62.9928 11.344 63.3981 11.152C63.8035 10.9493 64.1501 10.6773 64.4381 10.336C64.7368 9.99467 64.9661 9.61067 65.1261 9.184C65.2968 8.75733 65.3821 8.32 65.3821 7.872C65.3821 7.24267 65.2488 6.656 64.9821 6.112C64.7155 5.55733 64.3421 5.10933 63.8621 4.768C63.3821 4.42667 62.8275 4.256 62.1981 4.256C61.7288 4.256 61.2968 4.36267 60.9021 4.576C60.5075 4.77867 60.1608 5.04533 59.8621 5.376C59.5741 5.70667 59.3288 6.06933 59.1261 6.464V9.216C59.1688 9.52533 59.2861 9.81867 59.4781 10.096C59.6701 10.3627 59.9101 10.5973 60.1981 10.8C60.4968 10.992 60.8061 11.1467 61.1261 11.264C61.4568 11.3813 61.7661 11.44 62.0541 11.44ZM71.659 12.16C71.0723 12.16 70.5283 12.048 70.027 11.824C69.5257 11.5893 69.0883 11.2747 68.715 10.88C68.3523 10.4747 68.0643 10.0107 67.851 9.488C67.6483 8.95467 67.547 8.39467 67.547 7.808C67.547 7.01867 67.723 6.304 68.075 5.664C68.427 5.024 68.9123 4.512 69.531 4.128C70.1497 3.73333 70.843 3.536 71.611 3.536C72.4003 3.536 73.099 3.73333 73.707 4.128C74.315 4.52267 74.795 5.04533 75.147 5.696C75.5097 6.336 75.691 7.04 75.691 7.808C75.691 7.872 75.691 7.936 75.691 8C75.691 8.064 75.6857 8.11733 75.675 8.16H68.379C68.4217 8.78933 68.5977 9.36 68.907 9.872C69.2163 10.384 69.611 10.7893 70.091 11.088C70.5817 11.376 71.115 11.52 71.691 11.52C72.267 11.52 72.811 11.3707 73.323 11.072C73.835 10.7733 74.1923 10.3893 74.395 9.92L75.099 10.112C74.939 10.5067 74.683 10.8587 74.331 11.168C73.9897 11.4773 73.5843 11.7227 73.115 11.904C72.6563 12.0747 72.171 12.16 71.659 12.16ZM68.347 7.536H74.923C74.8803 6.88533 74.7097 6.30933 74.411 5.808C74.1123 5.30667 73.7177 4.912 73.227 4.624C72.747 4.336 72.2137 4.192 71.627 4.192C71.0403 4.192 70.507 4.336 70.027 4.624C69.547 4.912 69.1577 5.30667 68.859 5.808C68.5603 6.30933 68.3897 6.88533 68.347 7.536ZM81.3871 4.4C80.6405 4.42133 79.9845 4.64533 79.4191 5.072C78.8645 5.488 78.4751 6.064 78.2511 6.8V12H77.4511V3.68H78.2191V5.728C78.5071 5.14133 78.8911 4.66667 79.3711 4.304C79.8511 3.93067 80.3578 3.71733 80.8911 3.664C80.9978 3.65333 81.0938 3.648 81.1791 3.648C81.2645 3.648 81.3338 3.648 81.3871 3.648V4.4ZM81.7708 13.296L82.0108 12.032H81.7228V10.64H82.5388V12.032L82.2028 13.296H81.7708ZM88.7006 9.6C88.7006 9.09867 88.85 8.66667 89.1486 8.304C89.4473 7.93067 89.858 7.64267 90.3806 7.44C90.9033 7.22667 91.506 7.12 92.1886 7.12C92.6153 7.12 93.058 7.15733 93.5166 7.232C93.9753 7.30667 94.386 7.408 94.7486 7.536V6.752C94.7486 5.984 94.5246 5.37067 94.0766 4.912C93.6393 4.45333 93.0313 4.224 92.2526 4.224C91.8366 4.224 91.4046 4.30933 90.9566 4.48C90.5086 4.65067 90.05 4.896 89.5806 5.216L89.2446 4.64C89.7886 4.27733 90.3113 4.00533 90.8126 3.824C91.3246 3.632 91.8313 3.536 92.3326 3.536C93.3246 3.536 94.1086 3.82933 94.6846 4.416C95.2606 5.00267 95.5486 5.80267 95.5486 6.816V10.944C95.5486 11.072 95.5753 11.168 95.6286 11.232C95.6926 11.296 95.7833 11.3333 95.9006 11.344V12C95.8046 12.0107 95.7246 12.016 95.6606 12.016C95.5966 12.016 95.5433 12.016 95.5006 12.016C95.298 11.984 95.138 11.8987 95.0206 11.76C94.914 11.6213 94.8553 11.4667 94.8446 11.296V10.64C94.4606 11.12 93.9646 11.4933 93.3566 11.76C92.7593 12.0267 92.13 12.16 91.4686 12.16C90.946 12.16 90.4713 12.048 90.0446 11.824C89.6286 11.6 89.298 11.296 89.0526 10.912C88.818 10.5173 88.7006 10.08 88.7006 9.6ZM94.4286 10.288C94.5353 10.1493 94.6153 10.016 94.6686 9.888C94.722 9.76 94.7486 9.64267 94.7486 9.536V8.16C94.3646 8.01067 93.9646 7.89867 93.5486 7.824C93.1326 7.74933 92.706 7.712 92.2686 7.712C91.4366 7.712 90.7593 7.87733 90.2366 8.208C89.7246 8.53867 89.4686 8.98667 89.4686 9.552C89.4686 9.904 89.5593 10.2293 89.7406 10.528C89.922 10.8267 90.1726 11.0667 90.4926 11.248C90.8233 11.4293 91.202 11.52 91.6286 11.52C92.226 11.52 92.7753 11.408 93.2766 11.184C93.7886 10.9493 94.1726 10.6507 94.4286 10.288ZM101.632 11.6C101.579 11.6213 101.472 11.6747 101.312 11.76C101.152 11.8453 100.949 11.9253 100.704 12C100.459 12.064 100.187 12.096 99.8879 12.096C99.5999 12.096 99.3279 12.0427 99.0719 11.936C98.8265 11.8187 98.6292 11.648 98.4799 11.424C98.3305 11.2 98.2559 10.928 98.2559 10.608V4.336H97.0879V3.68H98.2559V0.832H99.0559V3.68H100.992V4.336H99.0559V10.416C99.0772 10.7253 99.1892 10.96 99.3919 11.12C99.5945 11.2693 99.8292 11.344 100.096 11.344C100.427 11.344 100.715 11.2907 100.96 11.184C101.205 11.0667 101.349 10.992 101.392 10.96L101.632 11.6ZM107.394 12V0.639999H111.17C112.376 0.639999 113.373 0.895999 114.162 1.408C114.962 1.90933 115.56 2.592 115.954 3.456C116.36 4.30933 116.562 5.25867 116.562 6.304C116.562 7.456 116.344 8.45867 115.906 9.312C115.469 10.1653 114.845 10.8267 114.034 11.296C113.224 11.7653 112.269 12 111.17 12H107.394ZM115.746 6.304C115.746 5.35467 115.565 4.50667 115.202 3.76C114.85 3.01333 114.333 2.432 113.65 2.016C112.978 1.58933 112.152 1.376 111.17 1.376H108.21V11.264H111.17C112.162 11.264 113 11.0453 113.682 10.608C114.365 10.1707 114.877 9.57867 115.218 8.832C115.57 8.07467 115.746 7.232 115.746 6.304ZM118.561 12V3.68H119.361V12H118.561ZM118.561 1.792V0.32H119.361V1.792H118.561ZM125.233 12.128C124.668 12.128 124.14 12.0107 123.649 11.776C123.169 11.5413 122.753 11.2213 122.401 10.816C122.06 10.4 121.788 9.94133 121.585 9.44C121.393 8.928 121.297 8.4 121.297 7.856C121.297 7.29067 121.388 6.74667 121.569 6.224C121.761 5.70133 122.028 5.24267 122.369 4.848C122.721 4.44267 123.132 4.12267 123.601 3.888C124.07 3.65333 124.593 3.536 125.169 3.536C125.894 3.536 126.524 3.728 127.057 4.112C127.601 4.48533 128.06 4.944 128.433 5.488V3.68H129.169V12.16C129.169 12.9067 128.988 13.536 128.625 14.048C128.262 14.56 127.782 14.9387 127.185 15.184C126.588 15.44 125.942 15.568 125.249 15.568C124.278 15.568 123.505 15.392 122.929 15.04C122.364 14.688 121.905 14.224 121.553 13.648L122.097 13.28C122.428 13.8347 122.876 14.2453 123.441 14.512C124.006 14.7787 124.609 14.912 125.249 14.912C125.814 14.912 126.332 14.8053 126.801 14.592C127.281 14.3893 127.66 14.08 127.937 13.664C128.225 13.2587 128.369 12.7573 128.369 12.16V10.336C128.038 10.88 127.585 11.3173 127.009 11.648C126.444 11.968 125.852 12.128 125.233 12.128ZM125.425 11.44C125.777 11.44 126.118 11.376 126.449 11.248C126.78 11.12 127.084 10.9493 127.361 10.736C127.638 10.512 127.868 10.2667 128.049 10C128.23 9.73333 128.337 9.46667 128.369 9.2V6.464C128.209 6.03733 127.964 5.65867 127.633 5.328C127.313 4.98667 126.95 4.72533 126.545 4.544C126.14 4.352 125.724 4.256 125.297 4.256C124.796 4.256 124.348 4.36267 123.953 4.576C123.558 4.78933 123.222 5.072 122.945 5.424C122.678 5.76533 122.47 6.15467 122.321 6.592C122.182 7.01867 122.113 7.44533 122.113 7.872C122.113 8.352 122.198 8.80533 122.369 9.232C122.54 9.65867 122.774 10.0427 123.073 10.384C123.382 10.7147 123.734 10.976 124.129 11.168C124.534 11.3493 124.966 11.44 125.425 11.44ZM131.67 12V3.68H132.47V12H131.67ZM131.67 1.792V0.32H132.47V1.792H131.67ZM138.694 11.6C138.641 11.6213 138.534 11.6747 138.374 11.76C138.214 11.8453 138.012 11.9253 137.766 12C137.521 12.064 137.249 12.096 136.95 12.096C136.662 12.096 136.39 12.0427 136.134 11.936C135.889 11.8187 135.692 11.648 135.542 11.424C135.393 11.2 135.318 10.928 135.318 10.608V4.336H134.15V3.68H135.318V0.832H136.118V3.68H138.054V4.336H136.118V10.416C136.14 10.7253 136.252 10.96 136.454 11.12C136.657 11.2693 136.892 11.344 137.158 11.344C137.489 11.344 137.777 11.2907 138.022 11.184C138.268 11.0667 138.412 10.992 138.454 10.96L138.694 11.6ZM139.419 9.6C139.419 9.09867 139.569 8.66667 139.867 8.304C140.166 7.93067 140.577 7.64267 141.099 7.44C141.622 7.22667 142.225 7.12 142.907 7.12C143.334 7.12 143.777 7.15733 144.235 7.232C144.694 7.30667 145.105 7.408 145.467 7.536V6.752C145.467 5.984 145.243 5.37067 144.795 4.912C144.358 4.45333 143.75 4.224 142.971 4.224C142.555 4.224 142.123 4.30933 141.675 4.48C141.227 4.65067 140.769 4.896 140.299 5.216L139.963 4.64C140.507 4.27733 141.03 4.00533 141.531 3.824C142.043 3.632 142.55 3.536 143.051 3.536C144.043 3.536 144.827 3.82933 145.403 4.416C145.979 5.00267 146.267 5.80267 146.267 6.816V10.944C146.267 11.072 146.294 11.168 146.347 11.232C146.411 11.296 146.502 11.3333 146.619 11.344V12C146.523 12.0107 146.443 12.016 146.379 12.016C146.315 12.016 146.262 12.016 146.219 12.016C146.017 11.984 145.857 11.8987 145.739 11.76C145.633 11.6213 145.574 11.4667 145.563 11.296V10.64C145.179 11.12 144.683 11.4933 144.075 11.76C143.478 12.0267 142.849 12.16 142.187 12.16C141.665 12.16 141.19 12.048 140.763 11.824C140.347 11.6 140.017 11.296 139.771 10.912C139.537 10.5173 139.419 10.08 139.419 9.6ZM145.147 10.288C145.254 10.1493 145.334 10.016 145.387 9.888C145.441 9.76 145.467 9.64267 145.467 9.536V8.16C145.083 8.01067 144.683 7.89867 144.267 7.824C143.851 7.74933 143.425 7.712 142.987 7.712C142.155 7.712 141.478 7.87733 140.955 8.208C140.443 8.53867 140.187 8.98667 140.187 9.552C140.187 9.904 140.278 10.2293 140.459 10.528C140.641 10.8267 140.891 11.0667 141.211 11.248C141.542 11.4293 141.921 11.52 142.347 11.52C142.945 11.52 143.494 11.408 143.995 11.184C144.507 10.9493 144.891 10.6507 145.147 10.288ZM148.765 0.32H149.581V10.352C149.581 10.736 149.661 11.0027 149.821 11.152C149.981 11.2907 150.189 11.36 150.445 11.36C150.616 11.36 150.792 11.344 150.973 11.312C151.154 11.28 151.314 11.2373 151.453 11.184L151.613 11.84C151.432 11.904 151.208 11.9627 150.941 12.016C150.674 12.0693 150.445 12.096 150.253 12.096C149.805 12.096 149.442 11.9627 149.165 11.696C148.898 11.4187 148.765 11.0507 148.765 10.592V0.32ZM157.507 2.16V12H156.691V0.639999H157.363L165.283 10.64V0.639999H166.099V12H165.299L157.507 2.16ZM172.237 12.16C171.65 12.16 171.106 12.048 170.605 11.824C170.104 11.5893 169.666 11.2747 169.293 10.88C168.93 10.4747 168.642 10.0107 168.429 9.488C168.226 8.95467 168.125 8.39467 168.125 7.808C168.125 7.01867 168.301 6.304 168.653 5.664C169.005 5.024 169.49 4.512 170.109 4.128C170.728 3.73333 171.421 3.536 172.189 3.536C172.978 3.536 173.677 3.73333 174.285 4.128C174.893 4.52267 175.373 5.04533 175.725 5.696C176.088 6.336 176.269 7.04 176.269 7.808C176.269 7.872 176.269 7.936 176.269 8C176.269 8.064 176.264 8.11733 176.253 8.16H168.957C169 8.78933 169.176 9.36 169.485 9.872C169.794 10.384 170.189 10.7893 170.669 11.088C171.16 11.376 171.693 11.52 172.269 11.52C172.845 11.52 173.389 11.3707 173.901 11.072C174.413 10.7733 174.77 10.3893 174.973 9.92L175.677 10.112C175.517 10.5067 175.261 10.8587 174.909 11.168C174.568 11.4773 174.162 11.7227 173.693 11.904C173.234 12.0747 172.749 12.16 172.237 12.16ZM168.925 7.536H175.501C175.458 6.88533 175.288 6.30933 174.989 5.808C174.69 5.30667 174.296 4.912 173.805 4.624C173.325 4.336 172.792 4.192 172.205 4.192C171.618 4.192 171.085 4.336 170.605 4.624C170.125 4.912 169.736 5.30667 169.437 5.808C169.138 6.30933 168.968 6.88533 168.925 7.536ZM177.668 3.68L180.324 7.12L180.452 7.344L180.58 7.12L183.22 3.68H184.148L180.916 7.856L184.132 12H183.204L180.58 8.576L180.452 8.368L180.324 8.576L177.684 12H176.772L179.972 7.856L176.756 3.68H177.668ZM185.59 8.48V3.68H186.39V8.368C186.39 9.40267 186.561 10.176 186.902 10.688C187.254 11.1893 187.782 11.44 188.486 11.44C188.955 11.44 189.403 11.3387 189.83 11.136C190.267 10.9227 190.651 10.6293 190.982 10.256C191.313 9.872 191.558 9.42933 191.718 8.928V3.68H192.518V10.944C192.518 11.072 192.545 11.168 192.598 11.232C192.662 11.296 192.747 11.3333 192.854 11.344V12C192.747 12.0107 192.662 12.016 192.598 12.016C192.545 12.016 192.497 12.0107 192.454 12C192.273 11.9787 192.123 11.904 192.006 11.776C191.889 11.6373 191.825 11.472 191.814 11.28L191.798 10.032C191.435 10.6933 190.934 11.216 190.294 11.6C189.665 11.9733 188.982 12.16 188.246 12.16C187.371 12.16 186.71 11.8507 186.262 11.232C185.814 10.6133 185.59 9.696 185.59 8.48ZM197.685 12.16C197.023 12.16 196.41 12.048 195.845 11.824C195.279 11.6 194.783 11.2587 194.357 10.8L194.725 10.24C195.183 10.6773 195.647 10.9973 196.117 11.2C196.586 11.392 197.098 11.488 197.653 11.488C198.367 11.488 198.943 11.3387 199.381 11.04C199.829 10.7413 200.053 10.3253 200.053 9.792C200.053 9.42933 199.946 9.152 199.733 8.96C199.53 8.75733 199.231 8.59733 198.837 8.48C198.453 8.352 197.983 8.21867 197.429 8.08C196.863 7.93067 196.383 7.776 195.989 7.616C195.605 7.456 195.317 7.248 195.125 6.992C194.933 6.736 194.837 6.38933 194.837 5.952C194.837 5.408 194.97 4.96 195.237 4.608C195.514 4.24533 195.882 3.97867 196.341 3.808C196.81 3.62667 197.327 3.536 197.893 3.536C198.543 3.536 199.109 3.64267 199.589 3.856C200.079 4.06933 200.453 4.352 200.709 4.704L200.277 5.216C200.01 4.87467 199.663 4.624 199.237 4.464C198.81 4.29333 198.341 4.208 197.829 4.208C197.445 4.208 197.082 4.26133 196.741 4.368C196.399 4.47467 196.122 4.65067 195.909 4.896C195.706 5.13067 195.605 5.45067 195.605 5.856C195.605 6.176 195.679 6.42667 195.829 6.608C195.989 6.78933 196.223 6.93867 196.533 7.056C196.842 7.16267 197.226 7.28 197.685 7.408C198.335 7.568 198.895 7.73333 199.365 7.904C199.834 8.07467 200.197 8.29867 200.453 8.576C200.709 8.84267 200.837 9.22133 200.837 9.712C200.837 10.4693 200.549 11.0667 199.973 11.504C199.397 11.9413 198.634 12.16 197.685 12.16ZM210.134 0.639999H210.838L215.638 12H214.774L213.19 8.256H207.766L206.182 12H205.302L210.134 0.639999ZM212.966 7.584L210.486 1.632L207.958 7.584H212.966ZM217.363 12V0.639999H218.179V12H217.363ZM221.224 13.296L221.464 12.032H221.176V10.64H221.992V12.032L221.656 13.296H221.224ZM238.948 3.68H239.748L236.148 12H235.444L233.604 7.664L231.764 12H231.06L227.46 3.68H228.244L231.428 11.12L233.14 7.056L231.748 3.696H232.468L233.604 6.432L234.724 3.696H235.46L234.068 7.056L235.78 11.12L238.948 3.68ZM244.534 12.16C243.947 12.16 243.403 12.048 242.902 11.824C242.401 11.5893 241.963 11.2747 241.59 10.88C241.227 10.4747 240.939 10.0107 240.726 9.488C240.523 8.95467 240.422 8.39467 240.422 7.808C240.422 7.01867 240.598 6.304 240.95 5.664C241.302 5.024 241.787 4.512 242.406 4.128C243.025 3.73333 243.718 3.536 244.486 3.536C245.275 3.536 245.974 3.73333 246.582 4.128C247.19 4.52267 247.67 5.04533 248.022 5.696C248.385 6.336 248.566 7.04 248.566 7.808C248.566 7.872 248.566 7.936 248.566 8C248.566 8.064 248.561 8.11733 248.55 8.16H241.254C241.297 8.78933 241.473 9.36 241.782 9.872C242.091 10.384 242.486 10.7893 242.966 11.088C243.457 11.376 243.99 11.52 244.566 11.52C245.142 11.52 245.686 11.3707 246.198 11.072C246.71 10.7733 247.067 10.3893 247.27 9.92L247.974 10.112C247.814 10.5067 247.558 10.8587 247.206 11.168C246.865 11.4773 246.459 11.7227 245.99 11.904C245.531 12.0747 245.046 12.16 244.534 12.16ZM241.222 7.536H247.798C247.755 6.88533 247.585 6.30933 247.286 5.808C246.987 5.30667 246.593 4.912 246.102 4.624C245.622 4.336 245.089 4.192 244.502 4.192C243.915 4.192 243.382 4.336 242.902 4.624C242.422 4.912 242.033 5.30667 241.734 5.808C241.435 6.30933 241.265 6.88533 241.222 7.536ZM253.86 7.856C253.86 7.07733 254.025 6.36267 254.356 5.712C254.686 5.06133 255.14 4.53867 255.716 4.144C256.292 3.73867 256.948 3.536 257.684 3.536C258.409 3.536 259.049 3.728 259.604 4.112C260.169 4.496 260.612 4.95467 260.932 5.488V0.32H261.732V10.944C261.732 11.072 261.758 11.168 261.812 11.232C261.876 11.296 261.961 11.3333 262.068 11.344V12C261.897 12.0213 261.769 12.0267 261.684 12.016C261.492 11.984 261.332 11.8933 261.204 11.744C261.076 11.5947 261.012 11.4347 261.012 11.264V10.336C260.67 10.8907 260.212 11.3333 259.636 11.664C259.06 11.9947 258.468 12.16 257.86 12.16C257.284 12.16 256.75 12.0427 256.26 11.808C255.769 11.5627 255.342 11.2373 254.98 10.832C254.628 10.4267 254.35 9.968 254.148 9.456C253.956 8.944 253.86 8.41067 253.86 7.856ZM260.932 9.2V6.464C260.782 6.05867 260.542 5.69067 260.212 5.36C259.881 5.01867 259.508 4.752 259.092 4.56C258.676 4.35733 258.265 4.256 257.86 4.256C257.38 4.256 256.942 4.35733 256.548 4.56C256.164 4.76267 255.828 5.03467 255.539 5.376C255.262 5.71733 255.049 6.10667 254.9 6.544C254.75 6.97067 254.676 7.41333 254.676 7.872C254.676 8.34133 254.761 8.79467 254.932 9.232C255.102 9.65867 255.337 10.0427 255.636 10.384C255.945 10.7147 256.297 10.976 256.692 11.168C257.097 11.3493 257.534 11.44 258.004 11.44C258.292 11.44 258.596 11.3813 258.916 11.264C259.246 11.1467 259.556 10.9867 259.844 10.784C260.142 10.5707 260.388 10.3307 260.58 10.064C260.782 9.78667 260.9 9.49867 260.932 9.2ZM267.767 12.16C267.181 12.16 266.637 12.048 266.135 11.824C265.645 11.6 265.218 11.2907 264.855 10.896C264.493 10.4907 264.21 10.0267 264.007 9.504C263.805 8.98133 263.703 8.432 263.703 7.856C263.703 7.26933 263.805 6.72 264.007 6.208C264.21 5.68533 264.493 5.22667 264.855 4.832C265.229 4.42667 265.661 4.112 266.151 3.888C266.653 3.65333 267.191 3.536 267.767 3.536C268.343 3.536 268.877 3.65333 269.367 3.888C269.858 4.112 270.29 4.42667 270.663 4.832C271.037 5.22667 271.325 5.68533 271.527 6.208C271.73 6.72 271.831 7.26933 271.831 7.856C271.831 8.432 271.73 8.98133 271.527 9.504C271.325 10.0267 271.037 10.4907 270.663 10.896C270.301 11.2907 269.869 11.6 269.367 11.824C268.877 12.048 268.343 12.16 267.767 12.16ZM264.503 7.888C264.503 8.53867 264.647 9.136 264.935 9.68C265.234 10.2133 265.629 10.64 266.119 10.96C266.61 11.28 267.154 11.44 267.751 11.44C268.349 11.44 268.893 11.28 269.383 10.96C269.885 10.6293 270.279 10.192 270.567 9.648C270.866 9.09333 271.015 8.49067 271.015 7.84C271.015 7.18933 270.866 6.592 270.567 6.048C270.279 5.504 269.885 5.072 269.383 4.752C268.893 4.42133 268.354 4.256 267.767 4.256C267.17 4.256 266.626 4.42133 266.135 4.752C265.645 5.08267 265.25 5.52 264.951 6.064C264.653 6.608 264.503 7.216 264.503 7.888ZM280.548 12H279.748V7.36C279.748 6.29333 279.593 5.51467 279.284 5.024C278.985 4.52267 278.505 4.272 277.844 4.272C277.375 4.272 276.911 4.384 276.452 4.608C276.004 4.832 275.609 5.14133 275.268 5.536C274.937 5.92 274.697 6.35733 274.548 6.848V12H273.748V3.68H274.5V5.664C274.724 5.23733 275.023 4.86933 275.396 4.56C275.769 4.24 276.185 3.98933 276.644 3.808C277.103 3.62667 277.577 3.536 278.068 3.536C278.527 3.536 278.911 3.62133 279.22 3.792C279.54 3.952 279.796 4.18667 279.988 4.496C280.191 4.80533 280.335 5.18933 280.42 5.648C280.505 6.10667 280.548 6.62933 280.548 7.216V12ZM282.105 3.36L282.329 1.792H282.041V0.32H282.857V1.792L282.537 3.36H282.105ZM288.21 11.6C288.157 11.6213 288.05 11.6747 287.89 11.76C287.73 11.8453 287.527 11.9253 287.282 12C287.037 12.064 286.765 12.096 286.466 12.096C286.178 12.096 285.906 12.0427 285.65 11.936C285.405 11.8187 285.207 11.648 285.058 11.424C284.909 11.2 284.834 10.928 284.834 10.608V4.336H283.666V3.68H284.834V0.832H285.634V3.68H287.57V4.336H285.634V10.416C285.655 10.7253 285.767 10.96 285.97 11.12C286.173 11.2693 286.407 11.344 286.674 11.344C287.005 11.344 287.293 11.2907 287.538 11.184C287.783 11.0667 287.927 10.992 287.97 10.96L288.21 11.6ZM292.324 14.832C291.994 14.832 291.679 14.784 291.38 14.688C291.082 14.6027 290.815 14.4533 290.58 14.24L291.012 13.712C291.183 13.8613 291.38 13.9627 291.604 14.016C291.818 14.0693 292.031 14.096 292.244 14.096C292.511 14.096 292.767 14.0267 293.012 13.888C293.258 13.7493 293.46 13.5573 293.62 13.312C293.78 13.0667 293.86 12.7893 293.86 12.48V3.68H294.66V12.448C294.66 12.9067 294.543 13.3173 294.308 13.68C294.084 14.0427 293.791 14.3253 293.428 14.528C293.076 14.7307 292.708 14.832 292.324 14.832ZM293.86 1.792V0.32H294.66V1.792H293.86ZM297.074 8.48V3.68H297.874V8.368C297.874 9.40267 298.045 10.176 298.386 10.688C298.738 11.1893 299.266 11.44 299.97 11.44C300.44 11.44 300.888 11.3387 301.314 11.136C301.752 10.9227 302.136 10.6293 302.466 10.256C302.797 9.872 303.042 9.42933 303.202 8.928V3.68H304.002V10.944C304.002 11.072 304.029 11.168 304.082 11.232C304.146 11.296 304.232 11.3333 304.338 11.344V12C304.232 12.0107 304.146 12.016 304.082 12.016C304.029 12.016 303.981 12.0107 303.938 12C303.757 11.9787 303.608 11.904 303.49 11.776C303.373 11.6373 303.309 11.472 303.298 11.28L303.282 10.032C302.92 10.6933 302.418 11.216 301.778 11.6C301.149 11.9733 300.466 12.16 299.73 12.16C298.856 12.16 298.194 11.8507 297.746 11.232C297.298 10.6133 297.074 9.696 297.074 8.48ZM309.169 12.16C308.508 12.16 307.894 12.048 307.329 11.824C306.764 11.6 306.268 11.2587 305.841 10.8L306.209 10.24C306.668 10.6773 307.132 10.9973 307.601 11.2C308.07 11.392 308.582 11.488 309.137 11.488C309.852 11.488 310.428 11.3387 310.865 11.04C311.313 10.7413 311.537 10.3253 311.537 9.792C311.537 9.42933 311.43 9.152 311.217 8.96C311.014 8.75733 310.716 8.59733 310.321 8.48C309.937 8.352 309.468 8.21867 308.913 8.08C308.348 7.93067 307.868 7.776 307.473 7.616C307.089 7.456 306.801 7.248 306.609 6.992C306.417 6.736 306.321 6.38933 306.321 5.952C306.321 5.408 306.454 4.96 306.721 4.608C306.998 4.24533 307.366 3.97867 307.825 3.808C308.294 3.62667 308.812 3.536 309.377 3.536C310.028 3.536 310.593 3.64267 311.073 3.856C311.564 4.06933 311.937 4.352 312.193 4.704L311.761 5.216C311.494 4.87467 311.148 4.624 310.721 4.464C310.294 4.29333 309.825 4.208 309.313 4.208C308.929 4.208 308.566 4.26133 308.225 4.368C307.884 4.47467 307.606 4.65067 307.393 4.896C307.19 5.13067 307.089 5.45067 307.089 5.856C307.089 6.176 307.164 6.42667 307.313 6.608C307.473 6.78933 307.708 6.93867 308.017 7.056C308.326 7.16267 308.71 7.28 309.169 7.408C309.82 7.568 310.38 7.73333 310.849 7.904C311.318 8.07467 311.681 8.29867 311.937 8.576C312.193 8.84267 312.321 9.22133 312.321 9.712C312.321 10.4693 312.033 11.0667 311.457 11.504C310.881 11.9413 310.118 12.16 309.169 12.16ZM317.913 11.6C317.86 11.6213 317.753 11.6747 317.593 11.76C317.433 11.8453 317.23 11.9253 316.985 12C316.74 12.064 316.468 12.096 316.169 12.096C315.881 12.096 315.609 12.0427 315.353 11.936C315.108 11.8187 314.91 11.648 314.761 11.424C314.612 11.2 314.537 10.928 314.537 10.608V4.336H313.369V3.68H314.537V0.832H315.337V3.68H317.273V4.336H315.337V10.416C315.358 10.7253 315.47 10.96 315.673 11.12C315.876 11.2693 316.11 11.344 316.377 11.344C316.708 11.344 316.996 11.2907 317.241 11.184C317.486 11.0667 317.63 10.992 317.673 10.96L317.913 11.6ZM326.972 12.16C326.396 12.16 325.857 12.048 325.356 11.824C324.854 11.5893 324.417 11.2747 324.044 10.88C323.67 10.4747 323.377 10.0107 323.164 9.488C322.961 8.96533 322.86 8.40533 322.86 7.808C322.86 7.008 323.036 6.288 323.388 5.648C323.74 5.008 324.225 4.496 324.844 4.112C325.462 3.728 326.166 3.536 326.956 3.536C327.713 3.536 328.38 3.712 328.956 4.064C329.532 4.40533 329.964 4.87467 330.252 5.472L329.468 5.728C329.222 5.26933 328.87 4.912 328.412 4.656C327.964 4.38933 327.468 4.256 326.924 4.256C326.316 4.256 325.766 4.41067 325.276 4.72C324.785 5.02933 324.39 5.456 324.092 6C323.804 6.53333 323.66 7.136 323.66 7.808C323.66 8.46933 323.809 9.07733 324.108 9.632C324.406 10.1867 324.801 10.6293 325.292 10.96C325.793 11.28 326.342 11.44 326.94 11.44C327.324 11.44 327.697 11.3707 328.06 11.232C328.433 11.0827 328.753 10.8907 329.02 10.656C329.297 10.4213 329.478 10.1707 329.564 9.904L330.348 10.128C330.209 10.5227 329.969 10.8747 329.628 11.184C329.286 11.4827 328.886 11.7227 328.428 11.904C327.98 12.0747 327.494 12.16 326.972 12.16ZM336.09 4.4C335.344 4.42133 334.688 4.64533 334.122 5.072C333.568 5.488 333.178 6.064 332.954 6.8V12H332.154V3.68H332.922V5.728C333.21 5.14133 333.594 4.66667 334.074 4.304C334.554 3.93067 335.061 3.71733 335.594 3.664C335.701 3.65333 335.797 3.648 335.882 3.648C335.968 3.648 336.037 3.648 336.09 3.648V4.4ZM340.815 12.16C340.229 12.16 339.685 12.048 339.183 11.824C338.682 11.5893 338.245 11.2747 337.871 10.88C337.509 10.4747 337.221 10.0107 337.007 9.488C336.805 8.95467 336.703 8.39467 336.703 7.808C336.703 7.01867 336.879 6.304 337.231 5.664C337.583 5.024 338.069 4.512 338.687 4.128C339.306 3.73333 339.999 3.536 340.767 3.536C341.557 3.536 342.255 3.73333 342.863 4.128C343.471 4.52267 343.951 5.04533 344.303 5.696C344.666 6.336 344.847 7.04 344.847 7.808C344.847 7.872 344.847 7.936 344.847 8C344.847 8.064 344.842 8.11733 344.831 8.16H337.535C337.578 8.78933 337.754 9.36 338.063 9.872C338.373 10.384 338.767 10.7893 339.247 11.088C339.738 11.376 340.271 11.52 340.847 11.52C341.423 11.52 341.967 11.3707 342.479 11.072C342.991 10.7733 343.349 10.3893 343.551 9.92L344.255 10.112C344.095 10.5067 343.839 10.8587 343.487 11.168C343.146 11.4773 342.741 11.7227 342.271 11.904C341.813 12.0747 341.327 12.16 340.815 12.16ZM337.503 7.536H344.079C344.037 6.88533 343.866 6.30933 343.567 5.808C343.269 5.30667 342.874 4.912 342.383 4.624C341.903 4.336 341.37 4.192 340.783 4.192C340.197 4.192 339.663 4.336 339.183 4.624C338.703 4.912 338.314 5.30667 338.015 5.808C337.717 6.30933 337.546 6.88533 337.503 7.536ZM345.919 9.6C345.919 9.09867 346.069 8.66667 346.367 8.304C346.666 7.93067 347.077 7.64267 347.599 7.44C348.122 7.22667 348.725 7.12 349.407 7.12C349.834 7.12 350.277 7.15733 350.735 7.232C351.194 7.30667 351.605 7.408 351.967 7.536V6.752C351.967 5.984 351.743 5.37067 351.295 4.912C350.858 4.45333 350.25 4.224 349.471 4.224C349.055 4.224 348.623 4.30933 348.175 4.48C347.727 4.65067 347.269 4.896 346.799 5.216L346.463 4.64C347.007 4.27733 347.53 4.00533 348.031 3.824C348.543 3.632 349.05 3.536 349.551 3.536C350.543 3.536 351.327 3.82933 351.903 4.416C352.479 5.00267 352.767 5.80267 352.767 6.816V10.944C352.767 11.072 352.794 11.168 352.847 11.232C352.911 11.296 353.002 11.3333 353.119 11.344V12C353.023 12.0107 352.943 12.016 352.879 12.016C352.815 12.016 352.762 12.016 352.719 12.016C352.517 11.984 352.357 11.8987 352.239 11.76C352.133 11.6213 352.074 11.4667 352.063 11.296V10.64C351.679 11.12 351.183 11.4933 350.575 11.76C349.978 12.0267 349.349 12.16 348.687 12.16C348.165 12.16 347.69 12.048 347.263 11.824C346.847 11.6 346.517 11.296 346.271 10.912C346.037 10.5173 345.919 10.08 345.919 9.6ZM351.647 10.288C351.754 10.1493 351.834 10.016 351.887 9.888C351.941 9.76 351.967 9.64267 351.967 9.536V8.16C351.583 8.01067 351.183 7.89867 350.767 7.824C350.351 7.74933 349.925 7.712 349.487 7.712C348.655 7.712 347.978 7.87733 347.455 8.208C346.943 8.53867 346.687 8.98667 346.687 9.552C346.687 9.904 346.778 10.2293 346.959 10.528C347.141 10.8267 347.391 11.0667 347.711 11.248C348.042 11.4293 348.421 11.52 348.847 11.52C349.445 11.52 349.994 11.408 350.495 11.184C351.007 10.9493 351.391 10.6507 351.647 10.288ZM358.851 11.6C358.797 11.6213 358.691 11.6747 358.531 11.76C358.371 11.8453 358.168 11.9253 357.923 12C357.677 12.064 357.405 12.096 357.107 12.096C356.819 12.096 356.547 12.0427 356.291 11.936C356.045 11.8187 355.848 11.648 355.699 11.424C355.549 11.2 355.475 10.928 355.475 10.608V4.336H354.307V3.68H355.475V0.832H356.275V3.68H358.211V4.336H356.275V10.416C356.296 10.7253 356.408 10.96 356.611 11.12C356.813 11.2693 357.048 11.344 357.315 11.344C357.645 11.344 357.933 11.2907 358.179 11.184C358.424 11.0667 358.568 10.992 358.611 10.96L358.851 11.6ZM363.643 12.16C363.057 12.16 362.513 12.048 362.011 11.824C361.51 11.5893 361.073 11.2747 360.699 10.88C360.337 10.4747 360.049 10.0107 359.835 9.488C359.633 8.95467 359.531 8.39467 359.531 7.808C359.531 7.01867 359.707 6.304 360.059 5.664C360.411 5.024 360.897 4.512 361.515 4.128C362.134 3.73333 362.827 3.536 363.595 3.536C364.385 3.536 365.083 3.73333 365.691 4.128C366.299 4.52267 366.779 5.04533 367.131 5.696C367.494 6.336 367.675 7.04 367.675 7.808C367.675 7.872 367.675 7.936 367.675 8C367.675 8.064 367.67 8.11733 367.659 8.16H360.363C360.406 8.78933 360.582 9.36 360.891 9.872C361.201 10.384 361.595 10.7893 362.075 11.088C362.566 11.376 363.099 11.52 363.675 11.52C364.251 11.52 364.795 11.3707 365.307 11.072C365.819 10.7733 366.177 10.3893 366.379 9.92L367.083 10.112C366.923 10.5067 366.667 10.8587 366.315 11.168C365.974 11.4773 365.569 11.7227 365.099 11.904C364.641 12.0747 364.155 12.16 363.643 12.16ZM360.331 7.536H366.907C366.865 6.88533 366.694 6.30933 366.395 5.808C366.097 5.30667 365.702 4.912 365.211 4.624C364.731 4.336 364.198 4.192 363.611 4.192C363.025 4.192 362.491 4.336 362.011 4.624C361.531 4.912 361.142 5.30667 360.843 5.808C360.545 6.30933 360.374 6.88533 360.331 7.536ZM369.324 5.088V3.728H370.028V5.088H369.324ZM369.372 13.296L369.596 12.032H369.308V10.64H370.124V12.032L369.804 13.296H369.372ZM386.714 3.68H387.514L383.914 12H383.21L381.37 7.664L379.53 12H378.826L375.226 3.68H376.01L379.194 11.12L380.906 7.056L379.514 3.696H380.234L381.37 6.432L382.49 3.696H383.226L381.834 7.056L383.546 11.12L386.714 3.68ZM392.3 12.16C391.713 12.16 391.169 12.048 390.668 11.824C390.166 11.5893 389.729 11.2747 389.356 10.88C388.993 10.4747 388.705 10.0107 388.492 9.488C388.289 8.95467 388.188 8.39467 388.188 7.808C388.188 7.01867 388.364 6.304 388.716 5.664C389.068 5.024 389.553 4.512 390.172 4.128C390.79 3.73333 391.484 3.536 392.252 3.536C393.041 3.536 393.74 3.73333 394.348 4.128C394.956 4.52267 395.436 5.04533 395.788 5.696C396.15 6.336 396.332 7.04 396.332 7.808C396.332 7.872 396.332 7.936 396.332 8C396.332 8.064 396.326 8.11733 396.316 8.16H389.02C389.062 8.78933 389.238 9.36 389.548 9.872C389.857 10.384 390.252 10.7893 390.732 11.088C391.222 11.376 391.756 11.52 392.332 11.52C392.908 11.52 393.452 11.3707 393.964 11.072C394.476 10.7733 394.833 10.3893 395.036 9.92L395.74 10.112C395.58 10.5067 395.324 10.8587 394.972 11.168C394.63 11.4773 394.225 11.7227 393.756 11.904C393.297 12.0747 392.812 12.16 392.3 12.16ZM388.988 7.536H395.564C395.521 6.88533 395.35 6.30933 395.052 5.808C394.753 5.30667 394.358 4.912 393.868 4.624C393.388 4.336 392.854 4.192 392.268 4.192C391.681 4.192 391.148 4.336 390.668 4.624C390.188 4.912 389.798 5.30667 389.5 5.808C389.201 6.30933 389.03 6.88533 388.988 7.536ZM402.201 12V3.68H403.001V12H402.201ZM402.201 1.792V0.32H403.001V1.792H402.201ZM412.314 12H411.514V7.36C411.514 6.29333 411.359 5.51467 411.05 5.024C410.751 4.52267 410.271 4.272 409.61 4.272C409.14 4.272 408.676 4.384 408.218 4.608C407.77 4.832 407.375 5.14133 407.034 5.536C406.703 5.92 406.463 6.35733 406.314 6.848V12H405.514V3.68H406.266V5.664C406.49 5.23733 406.788 4.86933 407.162 4.56C407.535 4.24 407.951 3.98933 408.41 3.808C408.868 3.62667 409.343 3.536 409.834 3.536C410.292 3.536 410.676 3.62133 410.986 3.792C411.306 3.952 411.562 4.18667 411.754 4.496C411.956 4.80533 412.1 5.18933 412.186 5.648C412.271 6.10667 412.314 6.62933 412.314 7.216V12ZM421.532 12H420.732V7.36C420.732 6.29333 420.578 5.51467 420.268 5.024C419.97 4.52267 419.49 4.272 418.828 4.272C418.359 4.272 417.895 4.384 417.436 4.608C416.988 4.832 416.594 5.14133 416.252 5.536C415.922 5.92 415.682 6.35733 415.532 6.848V12H414.732V3.68H415.484V5.664C415.708 5.23733 416.007 4.86933 416.38 4.56C416.754 4.24 417.17 3.98933 417.628 3.808C418.087 3.62667 418.562 3.536 419.052 3.536C419.511 3.536 419.895 3.62133 420.204 3.792C420.524 3.952 420.78 4.18667 420.972 4.496C421.175 4.80533 421.319 5.18933 421.404 5.648C421.49 6.10667 421.532 6.62933 421.532 7.216V12ZM427.439 12.16C426.852 12.16 426.308 12.048 425.807 11.824C425.316 11.6 424.89 11.2907 424.527 10.896C424.164 10.4907 423.882 10.0267 423.679 9.504C423.476 8.98133 423.375 8.432 423.375 7.856C423.375 7.26933 423.476 6.72 423.679 6.208C423.882 5.68533 424.164 5.22667 424.527 4.832C424.9 4.42667 425.332 4.112 425.823 3.888C426.324 3.65333 426.863 3.536 427.439 3.536C428.015 3.536 428.548 3.65333 429.039 3.888C429.53 4.112 429.962 4.42667 430.335 4.832C430.708 5.22667 430.996 5.68533 431.199 6.208C431.402 6.72 431.503 7.26933 431.503 7.856C431.503 8.432 431.402 8.98133 431.199 9.504C430.996 10.0267 430.708 10.4907 430.335 10.896C429.972 11.2907 429.54 11.6 429.039 11.824C428.548 12.048 428.015 12.16 427.439 12.16ZM424.175 7.888C424.175 8.53867 424.319 9.136 424.607 9.68C424.906 10.2133 425.3 10.64 425.791 10.96C426.282 11.28 426.826 11.44 427.423 11.44C428.02 11.44 428.564 11.28 429.055 10.96C429.556 10.6293 429.951 10.192 430.239 9.648C430.538 9.09333 430.687 8.49067 430.687 7.84C430.687 7.18933 430.538 6.592 430.239 6.048C429.951 5.504 429.556 5.072 429.055 4.752C428.564 4.42133 428.026 4.256 427.439 4.256C426.842 4.256 426.298 4.42133 425.807 4.752C425.316 5.08267 424.922 5.52 424.623 6.064C424.324 6.608 424.175 7.216 424.175 7.888ZM435.683 12L432.211 3.68H433.059L436.115 11.152L439.187 3.68H439.987L436.515 12H435.683ZM440.685 9.6C440.685 9.09867 440.834 8.66667 441.133 8.304C441.432 7.93067 441.842 7.64267 442.365 7.44C442.888 7.22667 443.49 7.12 444.173 7.12C444.6 7.12 445.042 7.15733 445.501 7.232C445.96 7.30667 446.37 7.408 446.733 7.536V6.752C446.733 5.984 446.509 5.37067 446.061 4.912C445.624 4.45333 445.016 4.224 444.237 4.224C443.821 4.224 443.389 4.30933 442.941 4.48C442.493 4.65067 442.034 4.896 441.565 5.216L441.229 4.64C441.773 4.27733 442.296 4.00533 442.797 3.824C443.309 3.632 443.816 3.536 444.317 3.536C445.309 3.536 446.093 3.82933 446.669 4.416C447.245 5.00267 447.533 5.80267 447.533 6.816V10.944C447.533 11.072 447.56 11.168 447.613 11.232C447.677 11.296 447.768 11.3333 447.885 11.344V12C447.789 12.0107 447.709 12.016 447.645 12.016C447.581 12.016 447.528 12.016 447.485 12.016C447.282 11.984 447.122 11.8987 447.005 11.76C446.898 11.6213 446.84 11.4667 446.829 11.296V10.64C446.445 11.12 445.949 11.4933 445.341 11.76C444.744 12.0267 444.114 12.16 443.453 12.16C442.93 12.16 442.456 12.048 442.029 11.824C441.613 11.6 441.282 11.296 441.037 10.912C440.802 10.5173 440.685 10.08 440.685 9.6ZM446.413 10.288C446.52 10.1493 446.6 10.016 446.653 9.888C446.706 9.76 446.733 9.64267 446.733 9.536V8.16C446.349 8.01067 445.949 7.89867 445.533 7.824C445.117 7.74933 444.69 7.712 444.253 7.712C443.421 7.712 442.744 7.87733 442.221 8.208C441.709 8.53867 441.453 8.98667 441.453 9.552C441.453 9.904 441.544 10.2293 441.725 10.528C441.906 10.8267 442.157 11.0667 442.477 11.248C442.808 11.4293 443.186 11.52 443.613 11.52C444.21 11.52 444.76 11.408 445.261 11.184C445.773 10.9493 446.157 10.6507 446.413 10.288ZM453.616 11.6C453.563 11.6213 453.456 11.6747 453.296 11.76C453.136 11.8453 452.934 11.9253 452.688 12C452.443 12.064 452.171 12.096 451.872 12.096C451.584 12.096 451.312 12.0427 451.056 11.936C450.811 11.8187 450.614 11.648 450.464 11.424C450.315 11.2 450.24 10.928 450.24 10.608V4.336H449.072V3.68H450.24V0.832H451.04V3.68H452.976V4.336H451.04V10.416C451.062 10.7253 451.174 10.96 451.376 11.12C451.579 11.2693 451.814 11.344 452.08 11.344C452.411 11.344 452.699 11.2907 452.944 11.184C453.19 11.0667 453.334 10.992 453.376 10.96L453.616 11.6ZM458.409 12.16C457.822 12.16 457.278 12.048 456.777 11.824C456.276 11.5893 455.838 11.2747 455.465 10.88C455.102 10.4747 454.814 10.0107 454.601 9.488C454.398 8.95467 454.297 8.39467 454.297 7.808C454.297 7.01867 454.473 6.304 454.825 5.664C455.177 5.024 455.662 4.512 456.281 4.128C456.9 3.73333 457.593 3.536 458.361 3.536C459.15 3.536 459.849 3.73333 460.457 4.128C461.065 4.52267 461.545 5.04533 461.897 5.696C462.26 6.336 462.441 7.04 462.441 7.808C462.441 7.872 462.441 7.936 462.441 8C462.441 8.064 462.436 8.11733 462.425 8.16H455.129C455.172 8.78933 455.348 9.36 455.657 9.872C455.966 10.384 456.361 10.7893 456.841 11.088C457.332 11.376 457.865 11.52 458.441 11.52C459.017 11.52 459.561 11.3707 460.073 11.072C460.585 10.7733 460.942 10.3893 461.145 9.92L461.849 10.112C461.689 10.5067 461.433 10.8587 461.081 11.168C460.74 11.4773 460.334 11.7227 459.865 11.904C459.406 12.0747 458.921 12.16 458.409 12.16ZM455.097 7.536H461.673C461.63 6.88533 461.46 6.30933 461.161 5.808C460.862 5.30667 460.468 4.912 459.977 4.624C459.497 4.336 458.964 4.192 458.377 4.192C457.79 4.192 457.257 4.336 456.777 4.624C456.297 4.912 455.908 5.30667 455.609 5.808C455.31 6.30933 455.14 6.88533 455.097 7.536Z" fill="white"/>
</svg>
