<svg width="37" height="32" viewBox="0 0 37 32" fill="none" xmlns="http://www.w3.org/2000/svg">
<g clip-path="url(#clip0_26_456)">
<path d="M26.641 26.6112H22.1307V19.6174C22.1307 17.9496 22.1006 15.8027 19.7848 15.8027C17.4357 15.8027 17.0763 17.6198 17.0763 19.4959V26.6107H12.5659V12.2286H16.8958V14.1941H16.9565C17.3898 13.4605 18.0159 12.857 18.7683 12.4479C19.5206 12.0387 20.3709 11.8393 21.2286 11.8709C25.8 11.8709 26.6429 14.8481 26.6429 18.7214L26.641 26.6112ZM7.47677 10.2627C6.95909 10.2627 6.453 10.1108 6.02252 9.82615C5.59204 9.54145 5.25651 9.13675 5.05832 8.66323C4.86013 8.18971 4.80819 7.66863 4.90909 7.16589C5.00999 6.66314 5.2592 6.20132 5.62519 5.8388C5.99117 5.47629 6.45751 5.22938 6.96521 5.12929C7.47292 5.0292 7.99919 5.08043 8.4775 5.2765C8.9558 5.47257 9.36464 5.80467 9.65232 6.23081C9.94 6.65695 10.0936 7.15799 10.0937 7.67057C10.0938 8.0109 10.0261 8.34792 9.89464 8.66237C9.76315 8.97683 9.57043 9.26256 9.32743 9.50326C9.08442 9.74396 8.79589 9.9349 8.47836 10.0652C8.16082 10.1955 7.82049 10.2626 7.47677 10.2627ZM9.73193 26.6112H5.2169V12.2286H9.73193V26.6112ZM28.8896 0.932153H2.95047C2.36172 0.925574 1.7944 1.1507 1.3732 1.55806C0.952012 1.96543 0.711409 2.52169 0.704224 3.10463V28.8948C0.711163 29.4781 0.951625 30.0347 1.3728 30.4425C1.79398 30.8503 2.36143 31.0758 2.95047 31.0696H28.8896C29.4798 31.077 30.0488 30.852 30.4717 30.4443C30.8945 30.0365 31.1366 29.4792 31.1447 28.8948V3.10277C31.1363 2.51868 30.8941 1.96178 30.4712 1.55442C30.0484 1.14707 29.4795 0.922588 28.8896 0.930291" fill="white"/>
<path d="M34.2005 26.9594C33.6518 26.9646 33.1274 27.1848 32.7422 27.5718C32.3569 27.9588 32.1422 28.4811 32.1448 29.0244C32.1474 29.5678 32.3673 30.088 32.7563 30.4713C33.1453 30.8546 33.6717 31.0698 34.2205 31.0698C34.7693 31.0698 35.2957 30.8546 35.6847 30.4713C36.0737 30.088 36.2935 29.5678 36.2962 29.0244C36.2988 28.4811 36.084 27.9588 35.6988 27.5718C35.3135 27.1848 34.7892 26.9646 34.2404 26.9594H34.2005ZM34.2005 30.8345C33.8406 30.8404 33.487 30.7406 33.1844 30.5475C32.8818 30.3544 32.6438 30.0768 32.5005 29.7499C32.3572 29.4229 32.3151 29.0611 32.3794 28.7105C32.4438 28.3598 32.6117 28.0358 32.862 27.7796C33.1123 27.5234 33.4336 27.3465 33.7855 27.2711C34.1373 27.1958 34.5038 27.2254 34.8387 27.3563C35.1735 27.4872 35.4616 27.7135 35.6665 28.0065C35.8715 28.2995 35.9841 28.6462 35.9901 29.0026C35.9901 29.0128 35.9901 29.0226 35.9901 29.0328C36.0001 29.5003 35.8223 29.9527 35.4956 30.2904C35.1689 30.628 34.7201 30.8234 34.248 30.8336H34.201" fill="white"/>
<path d="M34.5496 29.1242C34.6259 29.125 34.7017 29.1101 34.772 29.0806C34.8424 29.0511 34.9059 29.0075 34.9586 28.9526C35.0113 28.8977 35.052 28.8327 35.0784 28.7615C35.1047 28.6903 35.116 28.6144 35.1116 28.5387C35.1116 28.1235 34.8594 27.9251 34.3419 27.9251H33.5059V30.0991H33.8203V29.1514H34.2068L34.2156 29.163L34.8153 30.0991H35.1516L34.5064 29.1302L34.5496 29.1242ZM34.1859 28.9064H33.8212V28.1715H34.2834C34.5222 28.1715 34.7944 28.2102 34.7944 28.5207C34.7944 28.8778 34.5189 28.9064 34.184 28.9064" fill="white"/>
</g>
<defs>
<clipPath id="clip0_26_456">
<rect width="35.5919" height="30.1397" fill="white" transform="translate(0.704224 0.930099)"/>
</clipPath>
</defs>
</svg>
