<svg width="440" height="35" viewBox="0 0 440 35" fill="none" xmlns="http://www.w3.org/2000/svg">
<path d="M9.168 1.05601H5.008V11.68H4.192V1.05601H0.032V0.320006H9.168V1.05601ZM12.3706 11.84C11.784 11.84 11.24 11.728 10.7386 11.504C10.248 11.28 9.8213 10.9707 9.45863 10.576C9.09596 10.1707 8.81329 9.70671 8.61063 9.18401C8.40796 8.66134 8.30663 8.11201 8.30663 7.53601C8.30663 6.94934 8.40796 6.40001 8.61063 5.88801C8.81329 5.36534 9.09596 4.90668 9.45863 4.51201C9.832 4.10668 10.264 3.79201 10.7546 3.56801C11.256 3.33334 11.7946 3.21601 12.3706 3.21601C12.9466 3.21601 13.48 3.33334 13.9706 3.56801C14.4613 3.79201 14.8933 4.10668 15.2666 4.51201C15.64 4.90668 15.928 5.36534 16.1306 5.88801C16.3333 6.40001 16.4346 6.94934 16.4346 7.53601C16.4346 8.11201 16.3333 8.66134 16.1306 9.18401C15.928 9.70671 15.64 10.1707 15.2666 10.576C14.904 10.9707 14.472 11.28 13.9706 11.504C13.48 11.728 12.9466 11.84 12.3706 11.84ZM9.10663 7.56801C9.10663 8.21868 9.25063 8.81601 9.53863 9.36001C9.8373 9.89331 10.232 10.32 10.7226 10.64C11.2133 10.96 11.7573 11.12 12.3546 11.12C12.952 11.12 13.496 10.96 13.9866 10.64C14.488 10.3093 14.8826 9.87201 15.1706 9.32801C15.4693 8.77334 15.6186 8.17068 15.6186 7.52001C15.6186 6.86934 15.4693 6.27201 15.1706 5.72801C14.8826 5.18401 14.488 4.75201 13.9866 4.43201C13.496 4.10134 12.9573 3.93601 12.3706 3.93601C11.7733 3.93601 11.2293 4.10134 10.7386 4.43201C10.248 4.76268 9.8533 5.20001 9.55463 5.74401C9.25596 6.28801 9.10663 6.89601 9.10663 7.56801ZM25.8208 11.808C25.2554 11.808 24.7274 11.6907 24.2368 11.456C23.7568 11.2213 23.3408 10.9013 22.9888 10.496C22.6474 10.08 22.3754 9.62134 22.1728 9.12001C21.9808 8.60801 21.8848 8.08001 21.8848 7.53601C21.8848 6.97068 21.9754 6.42668 22.1568 5.90401C22.3488 5.38134 22.6154 4.92268 22.9568 4.52801C23.3088 4.12268 23.7194 3.80268 24.1888 3.56801C24.6581 3.33334 25.1808 3.21601 25.7568 3.21601C26.4821 3.21601 27.1114 3.40801 27.6448 3.79201C28.1888 4.16534 28.6474 4.62401 29.0208 5.16801V3.36001H29.7568V11.84C29.7568 12.5867 29.5754 13.216 29.2128 13.728C28.8501 14.24 28.3701 14.6187 27.7728 14.864C27.1754 15.12 26.5301 15.248 25.8368 15.248C24.8661 15.248 24.0928 15.072 23.5168 14.72C22.9514 14.368 22.4928 13.904 22.1408 13.328L22.6848 12.96C23.0154 13.5147 23.4634 13.9253 24.0288 14.192C24.5941 14.4587 25.1968 14.592 25.8368 14.592C26.4021 14.592 26.9194 14.4853 27.3888 14.272C27.8688 14.0693 28.2474 13.76 28.5248 13.344C28.8128 12.9387 28.9568 12.4373 28.9568 11.84V10.016C28.6261 10.56 28.1728 10.9973 27.5968 11.328C27.0314 11.648 26.4394 11.808 25.8208 11.808ZM26.0128 11.12C26.3648 11.12 26.7061 11.056 27.0368 10.928C27.3674 10.8 27.6714 10.6293 27.9488 10.416C28.2261 10.192 28.4554 9.94671 28.6368 9.68001C28.8181 9.41334 28.9248 9.14668 28.9568 8.88001V6.14401C28.7968 5.71734 28.5514 5.33868 28.2208 5.00801C27.9008 4.66668 27.5381 4.40534 27.1328 4.22401C26.7274 4.03201 26.3114 3.93601 25.8848 3.93601C25.3834 3.93601 24.9354 4.04268 24.5408 4.25601C24.1461 4.46934 23.8101 4.75201 23.5328 5.10401C23.2661 5.44534 23.0581 5.83468 22.9088 6.27201C22.7701 6.69868 22.7008 7.12534 22.7008 7.55201C22.7008 8.03201 22.7861 8.48534 22.9568 8.91201C23.1274 9.33868 23.3621 9.72271 23.6608 10.064C23.9701 10.3947 24.3221 10.656 24.7168 10.848C25.1221 11.0293 25.5541 11.12 26.0128 11.12ZM31.5696 9.28001C31.5696 8.77868 31.719 8.34668 32.0176 7.98401C32.3163 7.61068 32.727 7.32268 33.2496 7.12001C33.7723 6.90668 34.375 6.80001 35.0576 6.80001C35.4843 6.80001 35.927 6.83734 36.3856 6.91201C36.8443 6.98668 37.255 7.08801 37.6176 7.21601V6.43201C37.6176 5.66401 37.3936 5.05068 36.9456 4.59201C36.5083 4.13334 35.9003 3.90401 35.1216 3.90401C34.7056 3.90401 34.2736 3.98934 33.8256 4.16001C33.3776 4.33068 32.919 4.57601 32.4496 4.89601L32.1136 4.32001C32.6576 3.95734 33.1803 3.68534 33.6816 3.50401C34.1936 3.31201 34.7003 3.21601 35.2016 3.21601C36.1936 3.21601 36.9776 3.50934 37.5536 4.09601C38.1296 4.68268 38.4176 5.48268 38.4176 6.49601V10.624C38.4176 10.752 38.4443 10.848 38.4976 10.912C38.5616 10.976 38.6523 11.0133 38.7696 11.024V11.68C38.6736 11.6907 38.5936 11.696 38.5296 11.696C38.4656 11.696 38.4123 11.696 38.3696 11.696C38.167 11.664 38.007 11.5787 37.8896 11.44C37.783 11.3013 37.7243 11.1467 37.7136 10.976V10.32C37.3296 10.8 36.8336 11.1733 36.2256 11.44C35.6283 11.7067 34.999 11.84 34.3376 11.84C33.815 11.84 33.3403 11.728 32.9136 11.504C32.4976 11.28 32.167 10.976 31.9216 10.592C31.687 10.1973 31.5696 9.76001 31.5696 9.28001ZM37.2976 9.96801C37.4043 9.82931 37.4843 9.69601 37.5376 9.56801C37.591 9.44001 37.6176 9.32268 37.6176 9.21601V7.84001C37.2336 7.69068 36.8336 7.57868 36.4176 7.50401C36.0016 7.42934 35.575 7.39201 35.1376 7.39201C34.3056 7.39201 33.6283 7.55734 33.1056 7.88801C32.5936 8.21868 32.3376 8.66668 32.3376 9.23201C32.3376 9.58401 32.4283 9.90931 32.6096 10.208C32.791 10.5067 33.0416 10.7467 33.3616 10.928C33.6923 11.1093 34.071 11.2 34.4976 11.2C35.095 11.2 35.6443 11.088 36.1456 10.864C36.6576 10.6293 37.0416 10.3307 37.2976 9.96801ZM40.8514 11.68V3.36001H41.6514V11.68H40.8514ZM40.8514 1.47201V6.61612e-06H41.6514V1.47201H40.8514ZM50.9639 11.68H50.1639V7.04001C50.1639 5.97334 50.0092 5.19468 49.6999 4.70401C49.4012 4.20268 48.9212 3.95201 48.2599 3.95201C47.7905 3.95201 47.3265 4.06401 46.8679 4.28801C46.4199 4.51201 46.0252 4.82134 45.6839 5.21601C45.3532 5.60001 45.1132 6.03734 44.9639 6.52801V11.68H44.1639V3.36001H44.9159V5.34401C45.1399 4.91734 45.4385 4.54934 45.8119 4.24001C46.1852 3.92001 46.6012 3.66934 47.0599 3.48801C47.5185 3.30668 47.9932 3.21601 48.4839 3.21601C48.9425 3.21601 49.3265 3.30134 49.6359 3.47201C49.9559 3.63201 50.2119 3.86668 50.4039 4.17601C50.6065 4.48534 50.7505 4.86934 50.8359 5.32801C50.9212 5.78668 50.9639 6.30934 50.9639 6.89601V11.68ZM64.292 11.68H63.492V7.04001C63.492 6.01601 63.316 5.24801 62.964 4.73601C62.612 4.21334 62.1 3.95201 61.428 3.95201C60.9907 3.95201 60.5533 4.06401 60.116 4.28801C59.6787 4.51201 59.3 4.82134 58.98 5.21601C58.66 5.60001 58.4307 6.03734 58.292 6.52801V11.68H57.492V6.61612e-06H58.292V5.34401C58.6333 4.69334 59.108 4.17601 59.716 3.79201C60.324 3.40801 60.9693 3.21601 61.652 3.21601C62.1213 3.21601 62.5213 3.30134 62.852 3.47201C63.1827 3.64268 63.4547 3.88801 63.668 4.20801C63.8813 4.52801 64.036 4.91201 64.132 5.36001C64.2387 5.80801 64.292 6.32001 64.292 6.89601V11.68ZM66.0228 9.28001C66.0228 8.77868 66.1721 8.34668 66.4708 7.98401C66.7694 7.61068 67.1801 7.32268 67.7028 7.12001C68.2254 6.90668 68.8281 6.80001 69.5108 6.80001C69.9374 6.80001 70.3801 6.83734 70.8388 6.91201C71.2974 6.98668 71.7081 7.08801 72.0708 7.21601V6.43201C72.0708 5.66401 71.8468 5.05068 71.3988 4.59201C70.9614 4.13334 70.3534 3.90401 69.5747 3.90401C69.1588 3.90401 68.7268 3.98934 68.2788 4.16001C67.8308 4.33068 67.3721 4.57601 66.9028 4.89601L66.5668 4.32001C67.1108 3.95734 67.6334 3.68534 68.1348 3.50401C68.6468 3.31201 69.1534 3.21601 69.6548 3.21601C70.6468 3.21601 71.4308 3.50934 72.0068 4.09601C72.5828 4.68268 72.8708 5.48268 72.8708 6.49601V10.624C72.8708 10.752 72.8974 10.848 72.9508 10.912C73.0148 10.976 73.1054 11.0133 73.2228 11.024V11.68C73.1268 11.6907 73.0468 11.696 72.9828 11.696C72.9188 11.696 72.8654 11.696 72.8228 11.696C72.6201 11.664 72.4601 11.5787 72.3428 11.44C72.2361 11.3013 72.1774 11.1467 72.1668 10.976V10.32C71.7828 10.8 71.2868 11.1733 70.6788 11.44C70.0814 11.7067 69.4521 11.84 68.7908 11.84C68.2681 11.84 67.7934 11.728 67.3668 11.504C66.9508 11.28 66.6201 10.976 66.3748 10.592C66.1401 10.1973 66.0228 9.76001 66.0228 9.28001ZM71.7508 9.96801C71.8574 9.82931 71.9374 9.69601 71.9908 9.56801C72.0441 9.44001 72.0708 9.32268 72.0708 9.21601V7.84001C71.6868 7.69068 71.2868 7.57868 70.8708 7.50401C70.4548 7.42934 70.0281 7.39201 69.5908 7.39201C68.7588 7.39201 68.0814 7.55734 67.5588 7.88801C67.0468 8.21868 66.7908 8.66668 66.7908 9.23201C66.7908 9.58401 66.8814 9.90931 67.0628 10.208C67.2441 10.5067 67.4948 10.7467 67.8147 10.928C68.1454 11.1093 68.5241 11.2 68.9508 11.2C69.5481 11.2 70.0974 11.088 70.5988 10.864C71.1108 10.6293 71.4948 10.3307 71.7508 9.96801ZM82.1045 11.68H81.3045V7.04001C81.3045 5.97334 81.1498 5.19468 80.8405 4.70401C80.5418 4.20268 80.0618 3.95201 79.4005 3.95201C78.9312 3.95201 78.4672 4.06401 78.0085 4.28801C77.5605 4.51201 77.1658 4.82134 76.8245 5.21601C76.4938 5.60001 76.2538 6.03734 76.1045 6.52801V11.68H75.3045V3.36001H76.0565V5.34401C76.2805 4.91734 76.5792 4.54934 76.9525 4.24001C77.3258 3.92001 77.7418 3.66934 78.2005 3.48801C78.6592 3.30668 79.1338 3.21601 79.6245 3.21601C80.0832 3.21601 80.4672 3.30134 80.7765 3.47201C81.0965 3.63201 81.3525 3.86668 81.5445 4.17601C81.7472 4.48534 81.8912 4.86934 81.9765 5.32801C82.0618 5.78668 82.1045 6.30934 82.1045 6.89601V11.68ZM83.9473 7.53601C83.9473 6.75734 84.1126 6.04268 84.4433 5.39201C84.7739 4.74134 85.2273 4.21868 85.8033 3.82401C86.3793 3.41868 87.0353 3.21601 87.7713 3.21601C88.4966 3.21601 89.1366 3.40801 89.6913 3.79201C90.2566 4.17601 90.6993 4.63468 91.0193 5.16801V6.61612e-06H91.8193V10.624C91.8193 10.752 91.8459 10.848 91.8993 10.912C91.9633 10.976 92.0486 11.0133 92.1553 11.024V11.68C91.9846 11.7013 91.8566 11.7067 91.7713 11.696C91.5793 11.664 91.4193 11.5733 91.2913 11.424C91.1633 11.2747 91.0993 11.1147 91.0993 10.944V10.016C90.7579 10.5707 90.2993 11.0133 89.7233 11.344C89.1473 11.6747 88.5553 11.84 87.9473 11.84C87.3713 11.84 86.8379 11.7227 86.3473 11.488C85.8566 11.2427 85.4299 10.9173 85.0673 10.512C84.7153 10.1067 84.4379 9.64801 84.2353 9.13601C84.0433 8.62401 83.9473 8.09068 83.9473 7.53601ZM91.0193 8.88001V6.14401C90.8699 5.73868 90.6299 5.37068 90.2993 5.04001C89.9686 4.69868 89.5953 4.43201 89.1793 4.24001C88.7633 4.03734 88.3526 3.93601 87.9473 3.93601C87.4673 3.93601 87.0299 4.03734 86.6353 4.24001C86.2513 4.44268 85.9153 4.71468 85.6272 5.05601C85.3499 5.39734 85.1366 5.78668 84.9873 6.22401C84.8379 6.65068 84.7633 7.09334 84.7633 7.55201C84.7633 8.02134 84.8486 8.47468 85.0193 8.91201C85.1899 9.33868 85.4246 9.72271 85.7233 10.064C86.0326 10.3947 86.3846 10.656 86.7793 10.848C87.1846 11.0293 87.6219 11.12 88.0913 11.12C88.3793 11.12 88.6833 11.0613 89.0033 10.944C89.3339 10.8267 89.6433 10.6667 89.9313 10.464C90.2299 10.2507 90.4753 10.0107 90.6673 9.74401C90.8699 9.46668 90.9873 9.17868 91.0193 8.88001ZM96.991 11.84C96.3297 11.84 95.7163 11.728 95.151 11.504C94.5857 11.28 94.0897 10.9387 93.663 10.48L94.031 9.92001C94.4897 10.3573 94.9537 10.6773 95.423 10.88C95.8923 11.072 96.4043 11.168 96.959 11.168C97.6737 11.168 98.2497 11.0187 98.687 10.72C99.135 10.4213 99.359 10.0053 99.359 9.47201C99.359 9.10934 99.2523 8.83201 99.039 8.64001C98.8363 8.43734 98.5377 8.27734 98.143 8.16001C97.759 8.03201 97.2897 7.89868 96.735 7.76001C96.1697 7.61068 95.6897 7.45601 95.295 7.29601C94.911 7.13601 94.623 6.92801 94.431 6.67201C94.239 6.41601 94.143 6.06934 94.143 5.63201C94.143 5.08801 94.2763 4.64001 94.543 4.28801C94.8203 3.92534 95.1883 3.65868 95.647 3.48801C96.1163 3.30668 96.6337 3.21601 97.199 3.21601C97.8497 3.21601 98.415 3.32268 98.895 3.53601C99.3857 3.74934 99.759 4.03201 100.015 4.38401L99.583 4.89601C99.3163 4.55468 98.9697 4.30401 98.543 4.14401C98.1163 3.97334 97.647 3.88801 97.135 3.88801C96.751 3.88801 96.3883 3.94134 96.047 4.04801C95.7057 4.15468 95.4283 4.33068 95.215 4.57601C95.0123 4.81068 94.911 5.13068 94.911 5.53601C94.911 5.85601 94.9857 6.10668 95.135 6.28801C95.295 6.46934 95.5297 6.61868 95.839 6.73601C96.1483 6.84268 96.5323 6.96001 96.991 7.08801C97.6417 7.24801 98.2017 7.41334 98.671 7.58401C99.1403 7.75468 99.503 7.97868 99.759 8.25601C100.015 8.52268 100.143 8.90134 100.143 9.39201C100.143 10.1493 99.855 10.7467 99.279 11.184C98.703 11.6213 97.9403 11.84 96.991 11.84ZM101.847 7.69601V6.96001H106.455V7.69601H101.847ZM112.261 11.84C111.675 11.84 111.131 11.728 110.629 11.504C110.139 11.28 109.712 10.9707 109.349 10.576C108.987 10.1707 108.704 9.70671 108.501 9.18401C108.299 8.66134 108.197 8.11201 108.197 7.53601C108.197 6.94934 108.299 6.40001 108.501 5.88801C108.704 5.36534 108.987 4.90668 109.349 4.51201C109.723 4.10668 110.155 3.79201 110.645 3.56801C111.147 3.33334 111.685 3.21601 112.261 3.21601C112.837 3.21601 113.371 3.33334 113.861 3.56801C114.352 3.79201 114.784 4.10668 115.157 4.51201C115.531 4.90668 115.819 5.36534 116.021 5.88801C116.224 6.40001 116.325 6.94934 116.325 7.53601C116.325 8.11201 116.224 8.66134 116.021 9.18401C115.819 9.70671 115.531 10.1707 115.157 10.576C114.795 10.9707 114.363 11.28 113.861 11.504C113.371 11.728 112.837 11.84 112.261 11.84ZM108.997 7.56801C108.997 8.21868 109.141 8.81601 109.429 9.36001C109.728 9.89331 110.123 10.32 110.613 10.64C111.104 10.96 111.648 11.12 112.245 11.12C112.843 11.12 113.387 10.96 113.877 10.64C114.379 10.3093 114.773 9.87201 115.061 9.32801C115.36 8.77334 115.509 8.17068 115.509 7.52001C115.509 6.86934 115.36 6.27201 115.061 5.72801C114.773 5.18401 114.379 4.75201 113.877 4.43201C113.387 4.10134 112.848 3.93601 112.261 3.93601C111.664 3.93601 111.12 4.10134 110.629 4.43201C110.139 4.76268 109.744 5.20001 109.445 5.74401C109.147 6.28801 108.997 6.89601 108.997 7.56801ZM125.042 11.68H124.242V7.04001C124.242 5.97334 124.087 5.19468 123.778 4.70401C123.479 4.20268 122.999 3.95201 122.338 3.95201C121.869 3.95201 121.405 4.06401 120.946 4.28801C120.498 4.51201 120.103 4.82134 119.762 5.21601C119.431 5.60001 119.191 6.03734 119.042 6.52801V11.68H118.242V3.36001H118.994V5.34401C119.218 4.91734 119.517 4.54934 119.89 4.24001C120.263 3.92001 120.679 3.66934 121.138 3.48801C121.597 3.30668 122.071 3.21601 122.562 3.21601C123.021 3.21601 123.405 3.30134 123.714 3.47201C124.034 3.63201 124.29 3.86668 124.482 4.17601C124.685 4.48534 124.829 4.86934 124.914 5.32801C124.999 5.78668 125.042 6.30934 125.042 6.89601V11.68ZM135.106 11.84C134.519 11.84 133.975 11.728 133.474 11.504C132.973 11.2693 132.535 10.9547 132.162 10.56C131.799 10.1547 131.511 9.69071 131.298 9.16801C131.095 8.63468 130.994 8.07468 130.994 7.48801C130.994 6.69868 131.17 5.98401 131.522 5.34401C131.874 4.70401 132.359 4.19201 132.978 3.80801C133.597 3.41334 134.29 3.21601 135.058 3.21601C135.847 3.21601 136.546 3.41334 137.154 3.80801C137.762 4.20268 138.242 4.72534 138.594 5.37601C138.957 6.01601 139.138 6.72001 139.138 7.48801C139.138 7.55201 139.138 7.61601 139.138 7.68001C139.138 7.74401 139.133 7.79734 139.122 7.84001H131.826C131.869 8.46934 132.045 9.04001 132.354 9.55201C132.663 10.064 133.058 10.4693 133.538 10.768C134.029 11.056 134.562 11.2 135.138 11.2C135.714 11.2 136.258 11.0507 136.77 10.752C137.282 10.4533 137.639 10.0693 137.842 9.60001L138.546 9.79201C138.386 10.1867 138.13 10.5387 137.778 10.848C137.437 11.1573 137.031 11.4027 136.562 11.584C136.103 11.7547 135.618 11.84 135.106 11.84ZM131.794 7.21601H138.37C138.327 6.56534 138.157 5.98934 137.858 5.48801C137.559 4.98668 137.165 4.59201 136.674 4.30401C136.194 4.01601 135.661 3.87201 135.074 3.87201C134.487 3.87201 133.954 4.01601 133.474 4.30401C132.994 4.59201 132.605 4.98668 132.306 5.48801C132.007 5.98934 131.837 6.56534 131.794 7.21601ZM140.537 3.36001L143.193 6.80001L143.321 7.02401L143.449 6.80001L146.089 3.36001H147.017L143.785 7.53601L147.001 11.68H146.073L143.449 8.25601L143.321 8.04801L143.193 8.25601L140.553 11.68H139.641L142.841 7.53601L139.625 3.36001H140.537ZM152.603 11.84C151.888 11.84 151.248 11.6533 150.683 11.28C150.128 10.896 149.68 10.432 149.339 9.88801V15.088H148.539V3.36001H149.275V5.02401C149.616 4.49068 150.07 4.05868 150.635 3.72801C151.2 3.38668 151.798 3.21601 152.427 3.21601C153.014 3.21601 153.547 3.33868 154.027 3.58401C154.507 3.81868 154.923 4.14401 155.275 4.56001C155.638 4.96534 155.915 5.42401 156.107 5.93601C156.31 6.44801 156.411 6.98134 156.411 7.53601C156.411 8.30401 156.251 9.01868 155.931 9.68001C155.611 10.3307 155.163 10.8533 154.587 11.248C154.022 11.6427 153.36 11.84 152.603 11.84ZM152.411 11.12C152.902 11.12 153.339 11.0187 153.723 10.816C154.118 10.6133 154.454 10.3413 154.731 10C155.008 9.65868 155.222 9.27468 155.371 8.84801C155.52 8.42134 155.595 7.98401 155.595 7.53601C155.595 7.05601 155.51 6.60268 155.339 6.17601C155.168 5.73868 154.928 5.35468 154.619 5.02401C154.32 4.69334 153.968 4.43201 153.563 4.24001C153.168 4.03734 152.736 3.93601 152.267 3.93601C151.979 3.93601 151.67 3.99468 151.339 4.11201C151.019 4.22934 150.71 4.39468 150.411 4.60801C150.123 4.82134 149.883 5.06668 149.691 5.34401C149.499 5.61068 149.382 5.88801 149.339 6.17601V8.91201C149.531 9.31734 149.776 9.69071 150.075 10.032C150.384 10.3627 150.742 10.6293 151.147 10.832C151.552 11.024 151.974 11.12 152.411 11.12ZM161.872 11.84C161.285 11.84 160.741 11.728 160.24 11.504C159.738 11.2693 159.301 10.9547 158.928 10.56C158.565 10.1547 158.277 9.69071 158.064 9.16801C157.861 8.63468 157.76 8.07468 157.76 7.48801C157.76 6.69868 157.936 5.98401 158.288 5.34401C158.64 4.70401 159.125 4.19201 159.744 3.80801C160.362 3.41334 161.056 3.21601 161.824 3.21601C162.613 3.21601 163.312 3.41334 163.92 3.80801C164.528 4.20268 165.008 4.72534 165.36 5.37601C165.722 6.01601 165.904 6.72001 165.904 7.48801C165.904 7.55201 165.904 7.61601 165.904 7.68001C165.904 7.74401 165.898 7.79734 165.888 7.84001H158.592C158.634 8.46934 158.81 9.04001 159.12 9.55201C159.429 10.064 159.824 10.4693 160.304 10.768C160.794 11.056 161.328 11.2 161.904 11.2C162.48 11.2 163.024 11.0507 163.536 10.752C164.048 10.4533 164.405 10.0693 164.608 9.60001L165.312 9.79201C165.152 10.1867 164.896 10.5387 164.544 10.848C164.202 11.1573 163.797 11.4027 163.328 11.584C162.869 11.7547 162.384 11.84 161.872 11.84ZM158.56 7.21601H165.136C165.093 6.56534 164.922 5.98934 164.624 5.48801C164.325 4.98668 163.93 4.59201 163.44 4.30401C162.96 4.01601 162.426 3.87201 161.84 3.87201C161.253 3.87201 160.72 4.01601 160.24 4.30401C159.76 4.59201 159.37 4.98668 159.072 5.48801C158.773 5.98934 158.602 6.56534 158.56 7.21601ZM171.6 4.08001C170.853 4.10134 170.197 4.32534 169.632 4.75201C169.077 5.16801 168.688 5.74401 168.464 6.48001V11.68H167.664V3.36001H168.432V5.40801C168.72 4.82134 169.104 4.34668 169.584 3.98401C170.064 3.61068 170.571 3.39734 171.104 3.34401C171.211 3.33334 171.307 3.32801 171.392 3.32801C171.477 3.32801 171.547 3.32801 171.6 3.32801V4.08001ZM173.117 11.68V3.36001H173.917V11.68H173.117ZM173.117 1.47201V6.61612e-06H173.917V1.47201H173.117ZM179.966 11.84C179.379 11.84 178.835 11.728 178.334 11.504C177.832 11.2693 177.395 10.9547 177.022 10.56C176.659 10.1547 176.371 9.69071 176.158 9.16801C175.955 8.63468 175.854 8.07468 175.854 7.48801C175.854 6.69868 176.03 5.98401 176.382 5.34401C176.734 4.70401 177.219 4.19201 177.838 3.80801C178.456 3.41334 179.15 3.21601 179.918 3.21601C180.707 3.21601 181.406 3.41334 182.014 3.80801C182.622 4.20268 183.102 4.72534 183.454 5.37601C183.816 6.01601 183.997 6.72001 183.997 7.48801C183.997 7.55201 183.997 7.61601 183.997 7.68001C183.997 7.74401 183.992 7.79734 183.982 7.84001H176.686C176.728 8.46934 176.904 9.04001 177.214 9.55201C177.523 10.064 177.918 10.4693 178.398 10.768C178.888 11.056 179.422 11.2 179.998 11.2C180.574 11.2 181.118 11.0507 181.63 10.752C182.142 10.4533 182.499 10.0693 182.702 9.60001L183.405 9.79201C183.246 10.1867 182.99 10.5387 182.638 10.848C182.296 11.1573 181.891 11.4027 181.422 11.584C180.963 11.7547 180.478 11.84 179.966 11.84ZM176.654 7.21601H183.23C183.187 6.56534 183.016 5.98934 182.718 5.48801C182.419 4.98668 182.024 4.59201 181.534 4.30401C181.054 4.01601 180.52 3.87201 179.934 3.87201C179.347 3.87201 178.814 4.01601 178.334 4.30401C177.854 4.59201 177.464 4.98668 177.166 5.48801C176.867 5.98934 176.696 6.56534 176.654 7.21601ZM192.558 11.68H191.758V7.04001C191.758 5.97334 191.603 5.19468 191.294 4.70401C190.995 4.20268 190.515 3.95201 189.854 3.95201C189.384 3.95201 188.92 4.06401 188.462 4.28801C188.014 4.51201 187.619 4.82134 187.278 5.21601C186.947 5.60001 186.707 6.03734 186.558 6.52801V11.68H185.758V3.36001H186.51V5.34401C186.734 4.91734 187.032 4.54934 187.406 4.24001C187.779 3.92001 188.195 3.66934 188.654 3.48801C189.112 3.30668 189.587 3.21601 190.078 3.21601C190.536 3.21601 190.92 3.30134 191.23 3.47201C191.55 3.63201 191.806 3.86668 191.998 4.17601C192.2 4.48534 192.344 4.86934 192.43 5.32801C192.515 5.78668 192.558 6.30934 192.558 6.89601V11.68ZM198.512 11.84C197.936 11.84 197.398 11.728 196.896 11.504C196.395 11.2693 195.958 10.9547 195.584 10.56C195.211 10.1547 194.918 9.69071 194.704 9.16801C194.502 8.64534 194.4 8.08534 194.4 7.48801C194.4 6.68801 194.576 5.96801 194.928 5.32801C195.28 4.68801 195.766 4.17601 196.384 3.79201C197.003 3.40801 197.707 3.21601 198.496 3.21601C199.254 3.21601 199.92 3.39201 200.496 3.74401C201.072 4.08534 201.504 4.55468 201.792 5.15201L201.008 5.40801C200.763 4.94934 200.411 4.59201 199.952 4.33601C199.504 4.06934 199.008 3.93601 198.464 3.93601C197.856 3.93601 197.307 4.09068 196.816 4.40001C196.326 4.70934 195.931 5.13601 195.632 5.68001C195.344 6.21334 195.2 6.81601 195.2 7.48801C195.2 8.14934 195.35 8.75734 195.648 9.31201C195.947 9.86671 196.342 10.3093 196.832 10.64C197.334 10.96 197.883 11.12 198.48 11.12C198.864 11.12 199.238 11.0507 199.6 10.912C199.974 10.7627 200.294 10.5707 200.56 10.336C200.838 10.1013 201.019 9.85071 201.104 9.58401L201.888 9.80801C201.75 10.2027 201.51 10.5547 201.168 10.864C200.827 11.1627 200.427 11.4027 199.968 11.584C199.52 11.7547 199.035 11.84 198.512 11.84ZM207.153 11.84C206.566 11.84 206.022 11.728 205.521 11.504C205.02 11.2693 204.582 10.9547 204.209 10.56C203.846 10.1547 203.558 9.69071 203.345 9.16801C203.142 8.63468 203.041 8.07468 203.041 7.48801C203.041 6.69868 203.217 5.98401 203.569 5.34401C203.921 4.70401 204.406 4.19201 205.025 3.80801C205.644 3.41334 206.337 3.21601 207.105 3.21601C207.894 3.21601 208.593 3.41334 209.201 3.80801C209.809 4.20268 210.289 4.72534 210.641 5.37601C211.004 6.01601 211.185 6.72001 211.185 7.48801C211.185 7.55201 211.185 7.61601 211.185 7.68001C211.185 7.74401 211.18 7.79734 211.169 7.84001H203.873C203.916 8.46934 204.092 9.04001 204.401 9.55201C204.71 10.064 205.105 10.4693 205.585 10.768C206.076 11.056 206.609 11.2 207.185 11.2C207.761 11.2 208.305 11.0507 208.817 10.752C209.329 10.4533 209.686 10.0693 209.889 9.60001L210.593 9.79201C210.433 10.1867 210.177 10.5387 209.825 10.848C209.484 11.1573 209.078 11.4027 208.609 11.584C208.15 11.7547 207.665 11.84 207.153 11.84ZM203.841 7.21601H210.417C210.374 6.56534 210.204 5.98934 209.905 5.48801C209.606 4.98668 209.212 4.59201 208.721 4.30401C208.241 4.01601 207.708 3.87201 207.121 3.87201C206.534 3.87201 206.001 4.01601 205.521 4.30401C205.041 4.59201 204.652 4.98668 204.353 5.48801C204.054 5.98934 203.884 6.56534 203.841 7.21601ZM216.367 9.28001C216.367 8.77868 216.516 8.34668 216.815 7.98401C217.113 7.61068 217.524 7.32268 218.047 7.12001C218.569 6.90668 219.172 6.80001 219.855 6.80001C220.281 6.80001 220.724 6.83734 221.183 6.91201C221.641 6.98668 222.052 7.08801 222.415 7.21601V6.43201C222.415 5.66401 222.191 5.05068 221.743 4.59201C221.305 4.13334 220.697 3.90401 219.918 3.90401C219.503 3.90401 219.071 3.98934 218.623 4.16001C218.175 4.33068 217.716 4.57601 217.247 4.89601L216.911 4.32001C217.455 3.95734 217.977 3.68534 218.479 3.50401C218.991 3.31201 219.497 3.21601 219.999 3.21601C220.991 3.21601 221.775 3.50934 222.351 4.09601C222.927 4.68268 223.215 5.48268 223.215 6.49601V10.624C223.215 10.752 223.241 10.848 223.295 10.912C223.359 10.976 223.449 11.0133 223.567 11.024V11.68C223.471 11.6907 223.391 11.696 223.327 11.696C223.263 11.696 223.209 11.696 223.167 11.696C222.964 11.664 222.804 11.5787 222.687 11.44C222.58 11.3013 222.521 11.1467 222.511 10.976V10.32C222.127 10.8 221.631 11.1733 221.023 11.44C220.425 11.7067 219.796 11.84 219.135 11.84C218.612 11.84 218.137 11.728 217.711 11.504C217.295 11.28 216.964 10.976 216.719 10.592C216.484 10.1973 216.367 9.76001 216.367 9.28001ZM222.095 9.96801C222.201 9.82931 222.281 9.69601 222.335 9.56801C222.388 9.44001 222.415 9.32268 222.415 9.21601V7.84001C222.031 7.69068 221.631 7.57868 221.215 7.50401C220.799 7.42934 220.372 7.39201 219.935 7.39201C219.103 7.39201 218.425 7.55734 217.903 7.88801C217.391 8.21868 217.135 8.66668 217.135 9.23201C217.135 9.58401 217.225 9.90931 217.407 10.208C217.588 10.5067 217.839 10.7467 218.158 10.928C218.489 11.1093 218.868 11.2 219.295 11.2C219.892 11.2 220.441 11.088 220.943 10.864C221.455 10.6293 221.839 10.3307 222.095 9.96801ZM232.448 11.68H231.648V7.04001C231.648 5.97334 231.494 5.19468 231.184 4.70401C230.886 4.20268 230.406 3.95201 229.744 3.95201C229.275 3.95201 228.811 4.06401 228.352 4.28801C227.904 4.51201 227.51 4.82134 227.168 5.21601C226.838 5.60001 226.598 6.03734 226.448 6.52801V11.68H225.648V3.36001H226.4V5.34401C226.624 4.91734 226.923 4.54934 227.296 4.24001C227.67 3.92001 228.086 3.66934 228.544 3.48801C229.003 3.30668 229.478 3.21601 229.968 3.21601C230.427 3.21601 230.811 3.30134 231.12 3.47201C231.44 3.63201 231.696 3.86668 231.888 4.17601C232.091 4.48534 232.235 4.86934 232.32 5.32801C232.406 5.78668 232.448 6.30934 232.448 6.89601V11.68ZM234.291 7.53601C234.291 6.75734 234.456 6.04268 234.787 5.39201C235.118 4.74134 235.571 4.21868 236.147 3.82401C236.723 3.41868 237.379 3.21601 238.115 3.21601C238.84 3.21601 239.48 3.40801 240.035 3.79201C240.6 4.17601 241.043 4.63468 241.363 5.16801V6.61612e-06H242.163V10.624C242.163 10.752 242.19 10.848 242.243 10.912C242.307 10.976 242.392 11.0133 242.499 11.024V11.68C242.328 11.7013 242.2 11.7067 242.115 11.696C241.923 11.664 241.763 11.5733 241.635 11.424C241.507 11.2747 241.443 11.1147 241.443 10.944V10.016C241.102 10.5707 240.643 11.0133 240.067 11.344C239.491 11.6747 238.899 11.84 238.291 11.84C237.715 11.84 237.182 11.7227 236.691 11.488C236.2 11.2427 235.774 10.9173 235.411 10.512C235.059 10.1067 234.782 9.64801 234.579 9.13601C234.387 8.62401 234.291 8.09068 234.291 7.53601ZM241.363 8.88001V6.14401C241.214 5.73868 240.974 5.37068 240.643 5.04001C240.312 4.69868 239.939 4.43201 239.523 4.24001C239.107 4.03734 238.696 3.93601 238.291 3.93601C237.811 3.93601 237.374 4.03734 236.979 4.24001C236.595 4.44268 236.259 4.71468 235.971 5.05601C235.694 5.39734 235.48 5.78668 235.331 6.22401C235.182 6.65068 235.107 7.09334 235.107 7.55201C235.107 8.02134 235.192 8.47468 235.363 8.91201C235.534 9.33868 235.768 9.72271 236.067 10.064C236.376 10.3947 236.728 10.656 237.123 10.848C237.528 11.0293 237.966 11.12 238.435 11.12C238.723 11.12 239.027 11.0613 239.347 10.944C239.678 10.8267 239.987 10.6667 240.275 10.464C240.574 10.2507 240.819 10.0107 241.011 9.74401C241.214 9.46668 241.331 9.17868 241.363 8.88001ZM248.244 7.53601C248.244 6.75734 248.409 6.04268 248.74 5.39201C249.071 4.74134 249.524 4.21868 250.1 3.82401C250.676 3.41868 251.332 3.21601 252.068 3.21601C252.793 3.21601 253.433 3.40801 253.988 3.79201C254.553 4.17601 254.996 4.63468 255.316 5.16801V6.61612e-06H256.116V10.624C256.116 10.752 256.143 10.848 256.196 10.912C256.26 10.976 256.345 11.0133 256.452 11.024V11.68C256.281 11.7013 256.153 11.7067 256.068 11.696C255.876 11.664 255.716 11.5733 255.588 11.424C255.46 11.2747 255.396 11.1147 255.396 10.944V10.016C255.055 10.5707 254.596 11.0133 254.02 11.344C253.444 11.6747 252.852 11.84 252.244 11.84C251.668 11.84 251.135 11.7227 250.644 11.488C250.153 11.2427 249.727 10.9173 249.364 10.512C249.012 10.1067 248.735 9.64801 248.532 9.13601C248.34 8.62401 248.244 8.09068 248.244 7.53601ZM255.316 8.88001V6.14401C255.167 5.73868 254.927 5.37068 254.596 5.04001C254.265 4.69868 253.892 4.43201 253.476 4.24001C253.06 4.03734 252.649 3.93601 252.244 3.93601C251.764 3.93601 251.327 4.03734 250.932 4.24001C250.548 4.44268 250.212 4.71468 249.924 5.05601C249.647 5.39734 249.433 5.78668 249.284 6.22401C249.135 6.65068 249.06 7.09334 249.06 7.55201C249.06 8.02134 249.145 8.47468 249.316 8.91201C249.487 9.33868 249.721 9.72271 250.02 10.064C250.329 10.3947 250.681 10.656 251.076 10.848C251.481 11.0293 251.919 11.12 252.388 11.12C252.676 11.12 252.98 11.0613 253.3 10.944C253.631 10.8267 253.94 10.6667 254.228 10.464C254.527 10.2507 254.772 10.0107 254.964 9.74401C255.167 9.46668 255.284 9.17868 255.316 8.88001ZM262.2 11.84C261.613 11.84 261.069 11.728 260.568 11.504C260.067 11.2693 259.629 10.9547 259.256 10.56C258.893 10.1547 258.605 9.69071 258.392 9.16801C258.189 8.63468 258.088 8.07468 258.088 7.48801C258.088 6.69868 258.264 5.98401 258.616 5.34401C258.968 4.70401 259.453 4.19201 260.072 3.80801C260.691 3.41334 261.384 3.21601 262.152 3.21601C262.941 3.21601 263.64 3.41334 264.248 3.80801C264.856 4.20268 265.336 4.72534 265.688 5.37601C266.051 6.01601 266.232 6.72001 266.232 7.48801C266.232 7.55201 266.232 7.61601 266.232 7.68001C266.232 7.74401 266.227 7.79734 266.216 7.84001H258.92C258.963 8.46934 259.139 9.04001 259.448 9.55201C259.757 10.064 260.152 10.4693 260.632 10.768C261.123 11.056 261.656 11.2 262.232 11.2C262.808 11.2 263.352 11.0507 263.864 10.752C264.376 10.4533 264.733 10.0693 264.936 9.60001L265.64 9.79201C265.48 10.1867 265.224 10.5387 264.872 10.848C264.531 11.1573 264.125 11.4027 263.656 11.584C263.197 11.7547 262.712 11.84 262.2 11.84ZM258.888 7.21601H265.464C265.421 6.56534 265.251 5.98934 264.952 5.48801C264.653 4.98668 264.259 4.59201 263.768 4.30401C263.288 4.01601 262.755 3.87201 262.168 3.87201C261.581 3.87201 261.048 4.01601 260.568 4.30401C260.088 4.59201 259.699 4.98668 259.4 5.48801C259.101 5.98934 258.931 6.56534 258.888 7.21601ZM270.333 11.68L266.861 3.36001H267.709L270.765 10.832L273.837 3.36001H274.637L271.165 11.68H270.333ZM279.481 11.84C278.894 11.84 278.35 11.728 277.849 11.504C277.348 11.2693 276.91 10.9547 276.537 10.56C276.174 10.1547 275.886 9.69071 275.673 9.16801C275.47 8.63468 275.369 8.07468 275.369 7.48801C275.369 6.69868 275.545 5.98401 275.897 5.34401C276.249 4.70401 276.734 4.19201 277.353 3.80801C277.972 3.41334 278.665 3.21601 279.433 3.21601C280.222 3.21601 280.921 3.41334 281.529 3.80801C282.137 4.20268 282.617 4.72534 282.969 5.37601C283.332 6.01601 283.513 6.72001 283.513 7.48801C283.513 7.55201 283.513 7.61601 283.513 7.68001C283.513 7.74401 283.508 7.79734 283.497 7.84001H276.201C276.244 8.46934 276.42 9.04001 276.729 9.55201C277.038 10.064 277.433 10.4693 277.913 10.768C278.404 11.056 278.937 11.2 279.513 11.2C280.089 11.2 280.633 11.0507 281.145 10.752C281.657 10.4533 282.014 10.0693 282.217 9.60001L282.921 9.79201C282.761 10.1867 282.505 10.5387 282.153 10.848C281.812 11.1573 281.406 11.4027 280.937 11.584C280.478 11.7547 279.993 11.84 279.481 11.84ZM276.169 7.21601H282.745C282.702 6.56534 282.532 5.98934 282.233 5.48801C281.934 4.98668 281.54 4.59201 281.049 4.30401C280.569 4.01601 280.036 3.87201 279.449 3.87201C278.862 3.87201 278.329 4.01601 277.849 4.30401C277.369 4.59201 276.98 4.98668 276.681 5.48801C276.382 5.98934 276.212 6.56534 276.169 7.21601ZM285.337 6.61612e-06H286.153V10.032C286.153 10.416 286.233 10.6827 286.393 10.832C286.553 10.9707 286.761 11.04 287.017 11.04C287.188 11.04 287.364 11.024 287.545 10.992C287.727 10.96 287.887 10.9173 288.025 10.864L288.185 11.52C288.004 11.584 287.78 11.6427 287.513 11.696C287.247 11.7493 287.017 11.776 286.825 11.776C286.377 11.776 286.015 11.6427 285.737 11.376C285.471 11.0987 285.337 10.7307 285.337 10.272V6.61612e-06ZM292.902 11.84C292.315 11.84 291.771 11.728 291.27 11.504C290.779 11.28 290.353 10.9707 289.99 10.576C289.627 10.1707 289.345 9.70671 289.142 9.18401C288.939 8.66134 288.838 8.11201 288.838 7.53601C288.838 6.94934 288.939 6.40001 289.142 5.88801C289.345 5.36534 289.627 4.90668 289.99 4.51201C290.363 4.10668 290.795 3.79201 291.286 3.56801C291.787 3.33334 292.326 3.21601 292.902 3.21601C293.478 3.21601 294.011 3.33334 294.502 3.56801C294.993 3.79201 295.425 4.10668 295.798 4.51201C296.171 4.90668 296.459 5.36534 296.662 5.88801C296.865 6.40001 296.966 6.94934 296.966 7.53601C296.966 8.11201 296.865 8.66134 296.662 9.18401C296.459 9.70671 296.171 10.1707 295.798 10.576C295.435 10.9707 295.003 11.28 294.502 11.504C294.011 11.728 293.478 11.84 292.902 11.84ZM289.638 7.56801C289.638 8.21868 289.782 8.81601 290.07 9.36001C290.369 9.89331 290.763 10.32 291.254 10.64C291.745 10.96 292.289 11.12 292.886 11.12C293.483 11.12 294.027 10.96 294.518 10.64C295.019 10.3093 295.414 9.87201 295.702 9.32801C296.001 8.77334 296.15 8.17068 296.15 7.52001C296.15 6.86934 296.001 6.27201 295.702 5.72801C295.414 5.18401 295.019 4.75201 294.518 4.43201C294.027 4.10134 293.489 3.93601 292.902 3.93601C292.305 3.93601 291.761 4.10134 291.27 4.43201C290.779 4.76268 290.385 5.20001 290.086 5.74401C289.787 6.28801 289.638 6.89601 289.638 7.56801ZM302.947 11.84C302.232 11.84 301.592 11.6533 301.027 11.28C300.472 10.896 300.024 10.432 299.683 9.88801V15.088H298.883V3.36001H299.619V5.02401C299.96 4.49068 300.413 4.05868 300.979 3.72801C301.544 3.38668 302.141 3.21601 302.771 3.21601C303.357 3.21601 303.891 3.33868 304.371 3.58401C304.851 3.81868 305.267 4.14401 305.619 4.56001C305.981 4.96534 306.259 5.42401 306.451 5.93601C306.653 6.44801 306.755 6.98134 306.755 7.53601C306.755 8.30401 306.595 9.01868 306.275 9.68001C305.955 10.3307 305.507 10.8533 304.931 11.248C304.365 11.6427 303.704 11.84 302.947 11.84ZM302.755 11.12C303.245 11.12 303.683 11.0187 304.067 10.816C304.461 10.6133 304.797 10.3413 305.075 10C305.352 9.65868 305.565 9.27468 305.715 8.84801C305.864 8.42134 305.939 7.98401 305.939 7.53601C305.939 7.05601 305.853 6.60268 305.683 6.17601C305.512 5.73868 305.272 5.35468 304.963 5.02401C304.664 4.69334 304.312 4.43201 303.907 4.24001C303.512 4.03734 303.08 3.93601 302.611 3.93601C302.323 3.93601 302.013 3.99468 301.683 4.11201C301.363 4.22934 301.053 4.39468 300.755 4.60801C300.467 4.82134 300.227 5.06668 300.035 5.34401C299.843 5.61068 299.725 5.88801 299.683 6.17601V8.91201C299.875 9.31734 300.12 9.69071 300.419 10.032C300.728 10.3627 301.085 10.6293 301.491 10.832C301.896 11.024 302.317 11.12 302.755 11.12ZM312.896 14.496C313.066 14.5067 313.216 14.5067 313.344 14.496C313.482 14.496 313.584 14.4747 313.648 14.432C313.744 14.4 313.84 14.3147 313.936 14.176C314.042 14.048 314.181 13.7867 314.352 13.392C314.522 13.008 314.762 12.4373 315.072 11.68L311.36 3.36001H312.208L315.504 10.832L318.56 3.36001H319.376L314.816 14.304C314.752 14.4747 314.661 14.624 314.544 14.752C314.437 14.8907 314.304 14.9973 314.144 15.072C313.984 15.1573 313.792 15.2053 313.568 15.216C313.472 15.2267 313.37 15.232 313.264 15.232C313.157 15.2427 313.034 15.2427 312.896 15.232V14.496ZM324.183 11.84C323.596 11.84 323.052 11.728 322.551 11.504C322.06 11.28 321.634 10.9707 321.271 10.576C320.908 10.1707 320.626 9.70671 320.423 9.18401C320.22 8.66134 320.119 8.11201 320.119 7.53601C320.119 6.94934 320.22 6.40001 320.423 5.88801C320.626 5.36534 320.908 4.90668 321.271 4.51201C321.644 4.10668 322.076 3.79201 322.567 3.56801C323.068 3.33334 323.607 3.21601 324.183 3.21601C324.759 3.21601 325.292 3.33334 325.783 3.56801C326.274 3.79201 326.706 4.10668 327.079 4.51201C327.452 4.90668 327.74 5.36534 327.943 5.88801C328.146 6.40001 328.247 6.94934 328.247 7.53601C328.247 8.11201 328.146 8.66134 327.943 9.18401C327.74 9.70671 327.452 10.1707 327.079 10.576C326.716 10.9707 326.284 11.28 325.783 11.504C325.292 11.728 324.759 11.84 324.183 11.84ZM320.919 7.56801C320.919 8.21868 321.063 8.81601 321.351 9.36001C321.65 9.89331 322.044 10.32 322.535 10.64C323.026 10.96 323.57 11.12 324.167 11.12C324.764 11.12 325.308 10.96 325.799 10.64C326.3 10.3093 326.695 9.87201 326.983 9.32801C327.282 8.77334 327.431 8.17068 327.431 7.52001C327.431 6.86934 327.282 6.27201 326.983 5.72801C326.695 5.18401 326.3 4.75201 325.799 4.43201C325.308 4.10134 324.77 3.93601 324.183 3.93601C323.586 3.93601 323.042 4.10134 322.551 4.43201C322.06 4.76268 321.666 5.20001 321.367 5.74401C321.068 6.28801 320.919 6.89601 320.919 7.56801ZM330.084 8.16001V3.36001H330.884V8.04801C330.884 9.08268 331.055 9.85601 331.396 10.368C331.748 10.8693 332.276 11.12 332.98 11.12C333.449 11.12 333.897 11.0187 334.324 10.816C334.761 10.6027 335.145 10.3093 335.476 9.93601C335.807 9.55201 336.052 9.10934 336.212 8.60801V3.36001H337.012V10.624C337.012 10.752 337.039 10.848 337.092 10.912C337.156 10.976 337.241 11.0133 337.348 11.024V11.68C337.241 11.6907 337.156 11.696 337.092 11.696C337.039 11.696 336.991 11.6907 336.948 11.68C336.767 11.6587 336.617 11.584 336.5 11.456C336.383 11.3173 336.319 11.152 336.308 10.96L336.292 9.71201C335.929 10.3733 335.428 10.896 334.788 11.28C334.159 11.6533 333.476 11.84 332.74 11.84C331.865 11.84 331.204 11.5307 330.756 10.912C330.308 10.2933 330.084 9.37601 330.084 8.16001ZM343.491 4.08001C342.744 4.10134 342.088 4.32534 341.523 4.75201C340.968 5.16801 340.579 5.74401 340.355 6.48001V11.68H339.555V3.36001H340.323V5.40801C340.611 4.82134 340.995 4.34668 341.475 3.98401C341.955 3.61068 342.461 3.39734 342.995 3.34401C343.101 3.33334 343.197 3.32801 343.283 3.32801C343.368 3.32801 343.437 3.32801 343.491 3.32801V4.08001ZM351.35 11.84C350.689 11.84 350.076 11.728 349.51 11.504C348.945 11.28 348.449 10.9387 348.022 10.48L348.39 9.92001C348.849 10.3573 349.313 10.6773 349.782 10.88C350.252 11.072 350.764 11.168 351.318 11.168C352.033 11.168 352.609 11.0187 353.046 10.72C353.494 10.4213 353.718 10.0053 353.718 9.47201C353.718 9.10934 353.612 8.83201 353.398 8.64001C353.196 8.43734 352.897 8.27734 352.502 8.16001C352.118 8.03201 351.649 7.89868 351.094 7.76001C350.529 7.61068 350.049 7.45601 349.654 7.29601C349.27 7.13601 348.982 6.92801 348.79 6.67201C348.598 6.41601 348.502 6.06934 348.502 5.63201C348.502 5.08801 348.636 4.64001 348.902 4.28801C349.18 3.92534 349.548 3.65868 350.006 3.48801C350.476 3.30668 350.993 3.21601 351.558 3.21601C352.209 3.21601 352.774 3.32268 353.254 3.53601C353.745 3.74934 354.118 4.03201 354.374 4.38401L353.942 4.89601C353.676 4.55468 353.329 4.30401 352.902 4.14401C352.476 3.97334 352.006 3.88801 351.494 3.88801C351.11 3.88801 350.748 3.94134 350.406 4.04801C350.065 4.15468 349.788 4.33068 349.574 4.57601C349.372 4.81068 349.27 5.13068 349.27 5.53601C349.27 5.85601 349.345 6.10668 349.494 6.28801C349.654 6.46934 349.889 6.61868 350.198 6.73601C350.508 6.84268 350.892 6.96001 351.35 7.08801C352.001 7.24801 352.561 7.41334 353.03 7.58401C353.5 7.75468 353.862 7.97868 354.118 8.25601C354.374 8.52268 354.502 8.90134 354.502 9.39201C354.502 10.1493 354.214 10.7467 353.638 11.184C353.062 11.6213 352.3 11.84 351.35 11.84ZM362.399 11.68L359.151 7.23201L357.183 9.04001V11.68H356.383V6.61612e-06H357.183V8.14401L362.255 3.37601H363.167L359.695 6.75201L363.279 11.68H362.399ZM364.742 11.68V3.36001H365.542V11.68H364.742ZM364.742 1.47201V6.61612e-06H365.542V1.47201H364.742ZM368.119 6.61612e-06H368.935V10.032C368.935 10.416 369.015 10.6827 369.175 10.832C369.335 10.9707 369.543 11.04 369.799 11.04C369.969 11.04 370.145 11.024 370.327 10.992C370.508 10.96 370.668 10.9173 370.806 10.864L370.967 11.52C370.785 11.584 370.561 11.6427 370.295 11.696C370.028 11.7493 369.799 11.776 369.607 11.776C369.159 11.776 368.796 11.6427 368.519 11.376C368.252 11.0987 368.119 10.7307 368.119 10.272V6.61612e-06ZM372.259 6.61612e-06H373.075V10.032C373.075 10.416 373.155 10.6827 373.315 10.832C373.475 10.9707 373.683 11.04 373.939 11.04C374.11 11.04 374.286 11.024 374.467 10.992C374.648 10.96 374.808 10.9173 374.947 10.864L375.107 11.52C374.926 11.584 374.702 11.6427 374.435 11.696C374.168 11.7493 373.939 11.776 373.747 11.776C373.299 11.776 372.936 11.6427 372.659 11.376C372.392 11.0987 372.259 10.7307 372.259 10.272V6.61612e-06ZM378.96 11.84C378.298 11.84 377.685 11.728 377.12 11.504C376.554 11.28 376.058 10.9387 375.632 10.48L376 9.92001C376.458 10.3573 376.922 10.6773 377.392 10.88C377.861 11.072 378.373 11.168 378.928 11.168C379.642 11.168 380.218 11.0187 380.656 10.72C381.104 10.4213 381.328 10.0053 381.328 9.47201C381.328 9.10934 381.221 8.83201 381.008 8.64001C380.805 8.43734 380.506 8.27734 380.112 8.16001C379.728 8.03201 379.258 7.89868 378.704 7.76001C378.138 7.61068 377.658 7.45601 377.264 7.29601C376.88 7.13601 376.592 6.92801 376.4 6.67201C376.208 6.41601 376.112 6.06934 376.112 5.63201C376.112 5.08801 376.245 4.64001 376.512 4.28801C376.789 3.92534 377.157 3.65868 377.616 3.48801C378.085 3.30668 378.602 3.21601 379.168 3.21601C379.818 3.21601 380.384 3.32268 380.864 3.53601C381.354 3.74934 381.728 4.03201 381.984 4.38401L381.552 4.89601C381.285 4.55468 380.938 4.30401 380.512 4.14401C380.085 3.97334 379.616 3.88801 379.104 3.88801C378.72 3.88801 378.357 3.94134 378.016 4.04801C377.674 4.15468 377.397 4.33068 377.184 4.57601C376.981 4.81068 376.88 5.13068 376.88 5.53601C376.88 5.85601 376.954 6.10668 377.104 6.28801C377.264 6.46934 377.498 6.61868 377.808 6.73601C378.117 6.84268 378.501 6.96001 378.96 7.08801C379.61 7.24801 380.17 7.41334 380.64 7.58401C381.109 7.75468 381.472 7.97868 381.728 8.25601C381.984 8.52268 382.112 8.90134 382.112 9.39201C382.112 10.1493 381.824 10.7467 381.248 11.184C380.672 11.6213 379.909 11.84 378.96 11.84ZM398.208 3.36001H399.008L395.408 11.68H394.704L392.864 7.34401L391.024 11.68H390.32L386.72 3.36001H387.504L390.688 10.8L392.4 6.73601L391.008 3.37601H391.728L392.864 6.11201L393.984 3.37601H394.72L393.328 6.73601L395.04 10.8L398.208 3.36001ZM400.555 11.68V3.36001H401.355V11.68H400.555ZM400.555 1.47201V6.61612e-06H401.355V1.47201H400.555ZM407.579 11.28C407.526 11.3013 407.419 11.3547 407.259 11.44C407.099 11.5253 406.896 11.6053 406.651 11.68C406.406 11.744 406.134 11.776 405.835 11.776C405.547 11.776 405.275 11.7227 405.019 11.616C404.774 11.4987 404.576 11.328 404.427 11.104C404.278 10.88 404.203 10.608 404.203 10.288V4.01601H403.035V3.36001H404.203V0.512007H405.003V3.36001H406.939V4.01601H405.003V10.096C405.024 10.4053 405.136 10.64 405.339 10.8C405.542 10.9493 405.776 11.024 406.043 11.024C406.374 11.024 406.662 10.9707 406.907 10.864C407.152 10.7467 407.296 10.672 407.339 10.64L407.579 11.28ZM415.792 11.68H414.992V7.04001C414.992 6.01601 414.816 5.24801 414.464 4.73601C414.112 4.21334 413.6 3.95201 412.928 3.95201C412.491 3.95201 412.053 4.06401 411.616 4.28801C411.179 4.51201 410.8 4.82134 410.48 5.21601C410.16 5.60001 409.931 6.03734 409.792 6.52801V11.68H408.992V6.61612e-06H409.792V5.34401C410.133 4.69334 410.608 4.17601 411.216 3.79201C411.824 3.40801 412.469 3.21601 413.152 3.21601C413.621 3.21601 414.021 3.30134 414.352 3.47201C414.683 3.64268 414.955 3.88801 415.168 4.20801C415.381 4.52801 415.536 4.91201 415.632 5.36001C415.739 5.80801 415.792 6.32001 415.792 6.89601V11.68ZM422.24 8.16001V3.36001H423.04V8.04801C423.04 9.08268 423.211 9.85601 423.552 10.368C423.904 10.8693 424.432 11.12 425.136 11.12C425.605 11.12 426.053 11.0187 426.48 10.816C426.917 10.6027 427.301 10.3093 427.632 9.93601C427.963 9.55201 428.208 9.10934 428.368 8.60801V3.36001H429.168V10.624C429.168 10.752 429.195 10.848 429.248 10.912C429.312 10.976 429.397 11.0133 429.504 11.024V11.68C429.397 11.6907 429.312 11.696 429.248 11.696C429.195 11.696 429.147 11.6907 429.104 11.68C428.923 11.6587 428.773 11.584 428.656 11.456C428.539 11.3173 428.475 11.152 428.464 10.96L428.448 9.71201C428.085 10.3733 427.584 10.896 426.944 11.28C426.315 11.6533 425.632 11.84 424.896 11.84C424.021 11.84 423.36 11.5307 422.912 10.912C422.464 10.2933 422.24 9.37601 422.24 8.16001ZM434.335 11.84C433.673 11.84 433.06 11.728 432.495 11.504C431.929 11.28 431.433 10.9387 431.007 10.48L431.375 9.92001C431.833 10.3573 432.297 10.6773 432.767 10.88C433.236 11.072 433.748 11.168 434.303 11.168C435.017 11.168 435.593 11.0187 436.031 10.72C436.479 10.4213 436.703 10.0053 436.703 9.47201C436.703 9.10934 436.596 8.83201 436.383 8.64001C436.18 8.43734 435.881 8.27734 435.487 8.16001C435.103 8.03201 434.633 7.89868 434.079 7.76001C433.513 7.61068 433.033 7.45601 432.639 7.29601C432.255 7.13601 431.967 6.92801 431.775 6.67201C431.583 6.41601 431.487 6.06934 431.487 5.63201C431.487 5.08801 431.62 4.64001 431.887 4.28801C432.164 3.92534 432.532 3.65868 432.991 3.48801C433.46 3.30668 433.977 3.21601 434.543 3.21601C435.193 3.21601 435.759 3.32268 436.239 3.53601C436.729 3.74934 437.103 4.03201 437.359 4.38401L436.927 4.89601C436.66 4.55468 436.313 4.30401 435.887 4.14401C435.46 3.97334 434.991 3.88801 434.479 3.88801C434.095 3.88801 433.732 3.94134 433.391 4.04801C433.049 4.15468 432.772 4.33068 432.559 4.57601C432.356 4.81068 432.255 5.13068 432.255 5.53601C432.255 5.85601 432.329 6.10668 432.479 6.28801C432.639 6.46934 432.873 6.61868 433.183 6.73601C433.492 6.84268 433.876 6.96001 434.335 7.08801C434.985 7.24801 435.545 7.41334 436.015 7.58401C436.484 7.75468 436.847 7.97868 437.103 8.25601C437.359 8.52268 437.487 8.90134 437.487 9.39201C437.487 10.1493 437.199 10.7467 436.623 11.184C436.047 11.6213 435.284 11.84 434.335 11.84ZM439.191 11.68V10.32H439.895V11.68H439.191ZM0.256 29.496C0.522667 29.6667 0.83733 29.8107 1.2 29.928C1.57333 30.0453 1.99467 30.104 2.464 30.104C3.072 30.104 3.55733 30.0027 3.92 29.8C4.29333 29.5867 4.57067 29.272 4.752 28.856C4.944 28.44 5.072 27.9333 5.136 27.336C5.2 26.728 5.232 26.0293 5.232 25.24V19.32H6.048V25.096C6.048 25.9493 6.00533 26.728 5.92 27.432C5.84533 28.136 5.69067 28.7493 5.456 29.272C5.22133 29.784 4.864 30.1787 4.384 30.456C3.91467 30.7227 3.28533 30.856 2.496 30.856C1.984 30.856 1.52533 30.7973 1.12 30.68C0.714667 30.5627 0.341333 30.3867 0 30.152L0.256 29.496ZM11.9956 30.84C11.409 30.84 10.865 30.728 10.3636 30.504C9.873 30.28 9.44629 29.9707 9.08363 29.576C8.72096 29.1707 8.43829 28.7067 8.23563 28.184C8.03296 27.6613 7.93163 27.112 7.93163 26.536C7.93163 25.9493 8.03296 25.4 8.23563 24.888C8.43829 24.3653 8.72096 23.9067 9.08363 23.512C9.45696 23.1067 9.889 22.792 10.3796 22.568C10.881 22.3333 11.4196 22.216 11.9956 22.216C12.5716 22.216 13.105 22.3333 13.5956 22.568C14.0863 22.792 14.5183 23.1067 14.8916 23.512C15.265 23.9067 15.553 24.3653 15.7556 24.888C15.9583 25.4 16.0596 25.9493 16.0596 26.536C16.0596 27.112 15.9583 27.6613 15.7556 28.184C15.553 28.7067 15.265 29.1707 14.8916 29.576C14.529 29.9707 14.097 30.28 13.5956 30.504C13.105 30.728 12.5716 30.84 11.9956 30.84ZM8.73163 26.568C8.73163 27.2187 8.87563 27.816 9.16363 28.36C9.46229 28.8933 9.857 29.32 10.3476 29.64C10.8383 29.96 11.3823 30.12 11.9796 30.12C12.577 30.12 13.121 29.96 13.6116 29.64C14.113 29.3093 14.5076 28.872 14.7956 28.328C15.0943 27.7733 15.2436 27.1707 15.2436 26.52C15.2436 25.8693 15.0943 25.272 14.7956 24.728C14.5076 24.184 14.113 23.752 13.6116 23.432C13.121 23.1013 12.5823 22.936 11.9956 22.936C11.3983 22.936 10.8543 23.1013 10.3636 23.432C9.873 23.7627 9.47829 24.2 9.17963 24.744C8.88096 25.288 8.73163 25.896 8.73163 26.568ZM17.9764 30.68V22.36H18.7764V30.68H17.9764ZM17.9764 20.472V19H18.7764V20.472H17.9764ZM28.0889 30.68H27.2889V26.04C27.2889 24.9733 27.1342 24.1947 26.8249 23.704C26.5262 23.2027 26.0462 22.952 25.3849 22.952C24.9155 22.952 24.4515 23.064 23.9929 23.288C23.5449 23.512 23.1502 23.8213 22.8089 24.216C22.4782 24.6 22.2382 25.0373 22.0889 25.528V30.68H21.2889V22.36H22.0409V24.344C22.2649 23.9173 22.5635 23.5493 22.9369 23.24C23.3102 22.92 23.7262 22.6693 24.1849 22.488C24.6435 22.3067 25.1182 22.216 25.6089 22.216C26.0675 22.216 26.4515 22.3013 26.7609 22.472C27.0809 22.632 27.3369 22.8667 27.5289 23.176C27.7315 23.4853 27.8755 23.8693 27.9609 24.328C28.0462 24.7867 28.0889 25.3093 28.0889 25.896V30.68ZM38.105 30.84C37.5183 30.84 36.9743 30.728 36.473 30.504C35.9823 30.28 35.5557 29.9707 35.193 29.576C34.8303 29.1707 34.5477 28.7067 34.345 28.184C34.1423 27.6613 34.041 27.112 34.041 26.536C34.041 25.9493 34.1423 25.4 34.345 24.888C34.5477 24.3653 34.8303 23.9067 35.193 23.512C35.5663 23.1067 35.9983 22.792 36.489 22.568C36.9903 22.3333 37.529 22.216 38.105 22.216C38.681 22.216 39.2143 22.3333 39.705 22.568C40.1957 22.792 40.6277 23.1067 41.001 23.512C41.3743 23.9067 41.6623 24.3653 41.865 24.888C42.0677 25.4 42.169 25.9493 42.169 26.536C42.169 27.112 42.0677 27.6613 41.865 28.184C41.6623 28.7067 41.3743 29.1707 41.001 29.576C40.6383 29.9707 40.2063 30.28 39.705 30.504C39.2143 30.728 38.681 30.84 38.105 30.84ZM34.841 26.568C34.841 27.2187 34.985 27.816 35.273 28.36C35.5717 28.8933 35.9663 29.32 36.457 29.64C36.9477 29.96 37.4917 30.12 38.089 30.12C38.6863 30.12 39.2303 29.96 39.721 29.64C40.2223 29.3093 40.617 28.872 40.905 28.328C41.2037 27.7733 41.353 27.1707 41.353 26.52C41.353 25.8693 41.2037 25.272 40.905 24.728C40.617 24.184 40.2223 23.752 39.721 23.432C39.2303 23.1013 38.6917 22.936 38.105 22.936C37.5077 22.936 36.9637 23.1013 36.473 23.432C35.9823 23.7627 35.5877 24.2 35.289 24.744C34.9903 25.288 34.841 25.896 34.841 26.568ZM44.0058 27.16V22.36H44.8058V27.048C44.8058 28.0827 44.9764 28.856 45.3178 29.368C45.6698 29.8693 46.1978 30.12 46.9018 30.12C47.3711 30.12 47.8191 30.0187 48.2458 29.816C48.6831 29.6027 49.0671 29.3093 49.3978 28.936C49.7284 28.552 49.9738 28.1093 50.1338 27.608V22.36H50.9338V29.624C50.9338 29.752 50.9604 29.848 51.0138 29.912C51.0778 29.976 51.1631 30.0133 51.2698 30.024V30.68C51.1631 30.6907 51.0778 30.696 51.0138 30.696C50.9604 30.696 50.9124 30.6907 50.8698 30.68C50.6884 30.6587 50.5391 30.584 50.4218 30.456C50.3044 30.3173 50.2404 30.152 50.2298 29.96L50.2138 28.712C49.8511 29.3733 49.3498 29.896 48.7098 30.28C48.0804 30.6533 47.3978 30.84 46.6618 30.84C45.7871 30.84 45.1258 30.5307 44.6778 29.912C44.2298 29.2933 44.0058 28.376 44.0058 27.16ZM57.4124 23.08C56.6657 23.1013 56.0097 23.3253 55.4444 23.752C54.8897 24.168 54.5004 24.744 54.2764 25.48V30.68H53.4764V22.36H54.2444V24.408C54.5324 23.8213 54.9164 23.3467 55.3964 22.984C55.8764 22.6107 56.383 22.3973 56.9164 22.344C57.023 22.3333 57.119 22.328 57.2044 22.328C57.2897 22.328 57.359 22.328 57.4124 22.328V23.08ZM66.3603 30.28C66.3069 30.3013 66.2003 30.3547 66.0403 30.44C65.8803 30.5253 65.6776 30.6053 65.4323 30.68C65.1869 30.744 64.9149 30.776 64.6163 30.776C64.3283 30.776 64.0563 30.7227 63.8003 30.616C63.5549 30.4987 63.3576 30.328 63.2083 30.104C63.0589 29.88 62.9843 29.608 62.9843 29.288V23.016H61.8163V22.36H62.9843V19.512H63.7843V22.36H65.7203V23.016H63.7843V29.096C63.8056 29.4053 63.9176 29.64 64.1203 29.8C64.3229 29.9493 64.5576 30.024 64.8243 30.024C65.1549 30.024 65.4429 29.9707 65.6883 29.864C65.9336 29.7467 66.0776 29.672 66.1203 29.64L66.3603 30.28ZM71.153 30.84C70.5663 30.84 70.0223 30.728 69.521 30.504C69.0197 30.2693 68.5823 29.9547 68.209 29.56C67.8463 29.1547 67.5583 28.6907 67.345 28.168C67.1423 27.6347 67.041 27.0747 67.041 26.488C67.041 25.6987 67.217 24.984 67.569 24.344C67.921 23.704 68.4063 23.192 69.025 22.808C69.6437 22.4133 70.337 22.216 71.105 22.216C71.8943 22.216 72.593 22.4133 73.201 22.808C73.809 23.2027 74.289 23.7253 74.641 24.376C75.0037 25.016 75.185 25.72 75.185 26.488C75.185 26.552 75.185 26.616 75.185 26.68C75.185 26.744 75.1797 26.7973 75.169 26.84H67.873C67.9157 27.4693 68.0917 28.04 68.401 28.552C68.7103 29.064 69.105 29.4693 69.585 29.768C70.0757 30.056 70.609 30.2 71.185 30.2C71.761 30.2 72.305 30.0507 72.817 29.752C73.329 29.4533 73.6863 29.0693 73.889 28.6L74.593 28.792C74.433 29.1867 74.177 29.5387 73.825 29.848C73.4837 30.1573 73.0783 30.4027 72.609 30.584C72.1503 30.7547 71.665 30.84 71.153 30.84ZM67.841 26.216H74.417C74.3743 25.5653 74.2037 24.9893 73.905 24.488C73.6063 23.9867 73.2117 23.592 72.721 23.304C72.241 23.016 71.7077 22.872 71.121 22.872C70.5343 22.872 70.001 23.016 69.521 23.304C69.041 23.592 68.6517 23.9867 68.353 24.488C68.0543 24.9893 67.8837 25.5653 67.841 26.216ZM76.2571 28.28C76.2571 27.7787 76.4065 27.3467 76.7051 26.984C77.0038 26.6107 77.4145 26.3227 77.9371 26.12C78.4598 25.9067 79.0625 25.8 79.7451 25.8C80.1718 25.8 80.6145 25.8373 81.0731 25.912C81.5318 25.9867 81.9425 26.088 82.3051 26.216V25.432C82.3051 24.664 82.0811 24.0507 81.6331 23.592C81.1958 23.1333 80.5878 22.904 79.8091 22.904C79.3931 22.904 78.9611 22.9893 78.5131 23.16C78.0651 23.3307 77.6065 23.576 77.1371 23.896L76.8011 23.32C77.3451 22.9573 77.8678 22.6853 78.3691 22.504C78.8811 22.312 79.3878 22.216 79.8891 22.216C80.8811 22.216 81.6651 22.5093 82.2411 23.096C82.8171 23.6827 83.1051 24.4827 83.1051 25.496V29.624C83.1051 29.752 83.1318 29.848 83.1851 29.912C83.2491 29.976 83.3398 30.0133 83.4571 30.024V30.68C83.3611 30.6907 83.2811 30.696 83.2171 30.696C83.1531 30.696 83.0998 30.696 83.0571 30.696C82.8545 30.664 82.6945 30.5787 82.5771 30.44C82.4705 30.3013 82.4118 30.1467 82.4011 29.976V29.32C82.0171 29.8 81.5211 30.1733 80.9131 30.44C80.3158 30.7067 79.6865 30.84 79.0251 30.84C78.5025 30.84 78.0278 30.728 77.6011 30.504C77.1851 30.28 76.8545 29.976 76.6091 29.592C76.3745 29.1973 76.2571 28.76 76.2571 28.28ZM81.9851 28.968C82.0918 28.8293 82.1718 28.696 82.2251 28.568C82.2785 28.44 82.3051 28.3227 82.3051 28.216V26.84C81.9211 26.6907 81.5211 26.5787 81.1051 26.504C80.6891 26.4293 80.2625 26.392 79.8251 26.392C78.9931 26.392 78.3158 26.5573 77.7931 26.888C77.2811 27.2187 77.0251 27.6667 77.0251 28.232C77.0251 28.584 77.1158 28.9093 77.2971 29.208C77.4785 29.5067 77.7291 29.7467 78.0491 29.928C78.3798 30.1093 78.7585 30.2 79.1851 30.2C79.7825 30.2 80.3318 30.088 80.8331 29.864C81.3451 29.6293 81.7291 29.3307 81.9851 28.968ZM97.7629 30.68H96.9629V26.04C96.9629 24.984 96.7975 24.2053 96.4669 23.704C96.1469 23.2027 95.6509 22.952 94.9789 22.952C94.2962 22.952 93.6882 23.1973 93.1549 23.688C92.6322 24.168 92.2642 24.7867 92.0509 25.544V30.68H91.2509V26.04C91.2509 24.9733 91.0909 24.1947 90.7709 23.704C90.4509 23.2027 89.9549 22.952 89.2829 22.952C88.6002 22.952 87.9922 23.192 87.4589 23.672C86.9362 24.1413 86.5629 24.76 86.3389 25.528V30.68H85.5389V22.36H86.2909V24.344C86.6429 23.6613 87.0962 23.1387 87.6509 22.776C88.2055 22.4027 88.8135 22.216 89.4749 22.216C90.1682 22.216 90.7335 22.424 91.1709 22.84C91.6189 23.2453 91.8855 23.7893 91.9709 24.472C92.3655 23.7253 92.8349 23.1653 93.3789 22.792C93.9229 22.408 94.5415 22.216 95.2349 22.216C95.6935 22.216 96.0775 22.3013 96.3869 22.472C96.7069 22.632 96.9682 22.872 97.1709 23.192C97.3842 23.5013 97.5335 23.8853 97.6189 24.344C97.7149 24.8027 97.7629 25.32 97.7629 25.896V30.68ZM103.601 28.28C103.601 27.7787 103.75 27.3467 104.049 26.984C104.348 26.6107 104.758 26.3227 105.281 26.12C105.804 25.9067 106.406 25.8 107.089 25.8C107.516 25.8 107.958 25.8373 108.417 25.912C108.876 25.9867 109.286 26.088 109.649 26.216V25.432C109.649 24.664 109.425 24.0507 108.977 23.592C108.54 23.1333 107.932 22.904 107.153 22.904C106.737 22.904 106.305 22.9893 105.857 23.16C105.409 23.3307 104.95 23.576 104.481 23.896L104.145 23.32C104.689 22.9573 105.212 22.6853 105.713 22.504C106.225 22.312 106.732 22.216 107.233 22.216C108.225 22.216 109.009 22.5093 109.585 23.096C110.161 23.6827 110.449 24.4827 110.449 25.496V29.624C110.449 29.752 110.476 29.848 110.529 29.912C110.593 29.976 110.684 30.0133 110.801 30.024V30.68C110.705 30.6907 110.625 30.696 110.561 30.696C110.497 30.696 110.444 30.696 110.401 30.696C110.198 30.664 110.038 30.5787 109.921 30.44C109.814 30.3013 109.756 30.1467 109.745 29.976V29.32C109.361 29.8 108.865 30.1733 108.257 30.44C107.66 30.7067 107.03 30.84 106.369 30.84C105.846 30.84 105.372 30.728 104.945 30.504C104.529 30.28 104.198 29.976 103.953 29.592C103.718 29.1973 103.601 28.76 103.601 28.28ZM109.329 28.968C109.436 28.8293 109.516 28.696 109.569 28.568C109.622 28.44 109.649 28.3227 109.649 28.216V26.84C109.265 26.6907 108.865 26.5787 108.449 26.504C108.033 26.4293 107.606 26.392 107.169 26.392C106.337 26.392 105.66 26.5573 105.137 26.888C104.625 27.2187 104.369 27.6667 104.369 28.232C104.369 28.584 104.46 28.9093 104.641 29.208C104.822 29.5067 105.073 29.7467 105.393 29.928C105.724 30.1093 106.102 30.2 106.529 30.2C107.126 30.2 107.676 30.088 108.177 29.864C108.689 29.6293 109.073 29.3307 109.329 28.968ZM119.683 30.68H118.883V26.04C118.883 24.9733 118.728 24.1947 118.419 23.704C118.12 23.2027 117.64 22.952 116.979 22.952C116.509 22.952 116.045 23.064 115.587 23.288C115.139 23.512 114.744 23.8213 114.403 24.216C114.072 24.6 113.832 25.0373 113.683 25.528V30.68H112.883V22.36H113.635V24.344C113.859 23.9173 114.157 23.5493 114.531 23.24C114.904 22.92 115.32 22.6693 115.779 22.488C116.237 22.3067 116.712 22.216 117.203 22.216C117.661 22.216 118.045 22.3013 118.355 22.472C118.675 22.632 118.931 22.8667 119.123 23.176C119.325 23.4853 119.469 23.8693 119.555 24.328C119.64 24.7867 119.683 25.3093 119.683 25.896V30.68ZM121.525 26.536C121.525 25.7573 121.691 25.0427 122.021 24.392C122.352 23.7413 122.805 23.2187 123.381 22.824C123.957 22.4187 124.613 22.216 125.349 22.216C126.075 22.216 126.715 22.408 127.269 22.792C127.835 23.176 128.277 23.6347 128.597 24.168V19H129.397V29.624C129.397 29.752 129.424 29.848 129.477 29.912C129.541 29.976 129.627 30.0133 129.733 30.024V30.68C129.563 30.7013 129.435 30.7067 129.349 30.696C129.157 30.664 128.997 30.5733 128.869 30.424C128.741 30.2747 128.677 30.1147 128.677 29.944V29.016C128.336 29.5707 127.877 30.0133 127.301 30.344C126.725 30.6747 126.133 30.84 125.525 30.84C124.949 30.84 124.416 30.7227 123.925 30.488C123.435 30.2427 123.008 29.9173 122.645 29.512C122.293 29.1067 122.016 28.648 121.813 28.136C121.621 27.624 121.525 27.0907 121.525 26.536ZM128.597 27.88V25.144C128.448 24.7387 128.208 24.3707 127.877 24.04C127.547 23.6987 127.173 23.432 126.757 23.24C126.341 23.0373 125.931 22.936 125.525 22.936C125.045 22.936 124.608 23.0373 124.213 23.24C123.829 23.4427 123.493 23.7147 123.205 24.056C122.928 24.3973 122.715 24.7867 122.565 25.224C122.416 25.6507 122.341 26.0933 122.341 26.552C122.341 27.0213 122.427 27.4747 122.597 27.912C122.768 28.3387 123.003 28.7227 123.301 29.064C123.611 29.3947 123.963 29.656 124.357 29.848C124.763 30.0293 125.2 30.12 125.669 30.12C125.957 30.12 126.261 30.0613 126.581 29.944C126.912 29.8267 127.221 29.6667 127.509 29.464C127.808 29.2507 128.053 29.0107 128.245 28.744C128.448 28.4667 128.565 28.1787 128.597 27.88ZM139.767 30.28C139.713 30.3013 139.607 30.3547 139.447 30.44C139.287 30.5253 139.084 30.6053 138.839 30.68C138.593 30.744 138.321 30.776 138.023 30.776C137.735 30.776 137.463 30.7227 137.207 30.616C136.961 30.4987 136.764 30.328 136.615 30.104C136.465 29.88 136.391 29.608 136.391 29.288V23.016H135.223V22.36H136.391V19.512H137.191V22.36H139.127V23.016H137.191V29.096C137.212 29.4053 137.324 29.64 137.527 29.8C137.729 29.9493 137.964 30.024 138.231 30.024C138.561 30.024 138.849 29.9707 139.095 29.864C139.34 29.7467 139.484 29.672 139.527 29.64L139.767 30.28ZM140.492 28.28C140.492 27.7787 140.641 27.3467 140.94 26.984C141.238 26.6107 141.649 26.3227 142.172 26.12C142.694 25.9067 143.297 25.8 143.98 25.8C144.406 25.8 144.849 25.8373 145.308 25.912C145.766 25.9867 146.177 26.088 146.54 26.216V25.432C146.54 24.664 146.316 24.0507 145.868 23.592C145.43 23.1333 144.822 22.904 144.043 22.904C143.628 22.904 143.196 22.9893 142.748 23.16C142.3 23.3307 141.841 23.576 141.372 23.896L141.036 23.32C141.58 22.9573 142.102 22.6853 142.604 22.504C143.116 22.312 143.622 22.216 144.124 22.216C145.116 22.216 145.9 22.5093 146.476 23.096C147.052 23.6827 147.34 24.4827 147.34 25.496V29.624C147.34 29.752 147.366 29.848 147.42 29.912C147.484 29.976 147.574 30.0133 147.692 30.024V30.68C147.596 30.6907 147.516 30.696 147.452 30.696C147.388 30.696 147.334 30.696 147.292 30.696C147.089 30.664 146.929 30.5787 146.812 30.44C146.705 30.3013 146.646 30.1467 146.636 29.976V29.32C146.252 29.8 145.756 30.1733 145.148 30.44C144.55 30.7067 143.921 30.84 143.26 30.84C142.737 30.84 142.262 30.728 141.836 30.504C141.42 30.28 141.089 29.976 140.844 29.592C140.609 29.1973 140.492 28.76 140.492 28.28ZM146.22 28.968C146.326 28.8293 146.406 28.696 146.46 28.568C146.513 28.44 146.54 28.3227 146.54 28.216V26.84C146.156 26.6907 145.756 26.5787 145.34 26.504C144.924 26.4293 144.497 26.392 144.06 26.392C143.228 26.392 142.55 26.5573 142.028 26.888C141.516 27.2187 141.26 27.6667 141.26 28.232C141.26 28.584 141.35 28.9093 141.532 29.208C141.713 29.5067 141.964 29.7467 142.283 29.928C142.614 30.1093 142.993 30.2 143.42 30.2C144.017 30.2 144.566 30.088 145.068 29.864C145.58 29.6293 145.964 29.3307 146.22 28.968ZM155.789 30.68L152.541 26.232L150.573 28.04V30.68H149.773V19H150.573V27.144L155.645 22.376H156.557L153.085 25.752L156.669 30.68H155.789ZM161.231 30.84C160.644 30.84 160.1 30.728 159.599 30.504C159.098 30.2693 158.66 29.9547 158.287 29.56C157.924 29.1547 157.636 28.6907 157.423 28.168C157.22 27.6347 157.119 27.0747 157.119 26.488C157.119 25.6987 157.295 24.984 157.647 24.344C157.999 23.704 158.484 23.192 159.103 22.808C159.722 22.4133 160.415 22.216 161.183 22.216C161.972 22.216 162.671 22.4133 163.279 22.808C163.887 23.2027 164.367 23.7253 164.719 24.376C165.082 25.016 165.263 25.72 165.263 26.488C165.263 26.552 165.263 26.616 165.263 26.68C165.263 26.744 165.258 26.7973 165.247 26.84H157.951C157.994 27.4693 158.17 28.04 158.479 28.552C158.788 29.064 159.183 29.4693 159.663 29.768C160.154 30.056 160.687 30.2 161.263 30.2C161.839 30.2 162.383 30.0507 162.895 29.752C163.407 29.4533 163.764 29.0693 163.967 28.6L164.671 28.792C164.511 29.1867 164.255 29.5387 163.903 29.848C163.562 30.1573 163.156 30.4027 162.687 30.584C162.228 30.7547 161.743 30.84 161.231 30.84ZM157.919 26.216H164.495C164.452 25.5653 164.282 24.9893 163.983 24.488C163.684 23.9867 163.29 23.592 162.799 23.304C162.319 23.016 161.786 22.872 161.199 22.872C160.612 22.872 160.079 23.016 159.599 23.304C159.119 23.592 158.73 23.9867 158.431 24.488C158.132 24.9893 157.962 25.5653 157.919 26.216ZM174.845 30.28C174.791 30.3013 174.685 30.3547 174.525 30.44C174.365 30.5253 174.162 30.6053 173.917 30.68C173.671 30.744 173.399 30.776 173.101 30.776C172.813 30.776 172.541 30.7227 172.285 30.616C172.039 30.4987 171.842 30.328 171.693 30.104C171.543 29.88 171.469 29.608 171.469 29.288V23.016H170.301V22.36H171.469V19.512H172.269V22.36H174.205V23.016H172.269V29.096C172.29 29.4053 172.402 29.64 172.605 29.8C172.807 29.9493 173.042 30.024 173.309 30.024C173.639 30.024 173.927 29.9707 174.173 29.864C174.418 29.7467 174.562 29.672 174.605 29.64L174.845 30.28ZM183.058 30.68H182.258V26.04C182.258 25.016 182.082 24.248 181.73 23.736C181.378 23.2133 180.866 22.952 180.194 22.952C179.756 22.952 179.319 23.064 178.882 23.288C178.444 23.512 178.066 23.8213 177.746 24.216C177.426 24.6 177.196 25.0373 177.058 25.528V30.68H176.258V19H177.058V24.344C177.399 23.6933 177.874 23.176 178.482 22.792C179.09 22.408 179.735 22.216 180.418 22.216C180.887 22.216 181.287 22.3013 181.618 22.472C181.948 22.6427 182.22 22.888 182.434 23.208C182.647 23.528 182.802 23.912 182.898 24.36C183.004 24.808 183.058 25.32 183.058 25.896V30.68ZM189.012 30.84C188.426 30.84 187.882 30.728 187.38 30.504C186.879 30.2693 186.442 29.9547 186.068 29.56C185.706 29.1547 185.418 28.6907 185.204 28.168C185.002 27.6347 184.9 27.0747 184.9 26.488C184.9 25.6987 185.076 24.984 185.428 24.344C185.78 23.704 186.266 23.192 186.884 22.808C187.503 22.4133 188.196 22.216 188.964 22.216C189.754 22.216 190.452 22.4133 191.06 22.808C191.668 23.2027 192.148 23.7253 192.5 24.376C192.863 25.016 193.044 25.72 193.044 26.488C193.044 26.552 193.044 26.616 193.044 26.68C193.044 26.744 193.039 26.7973 193.028 26.84H185.732C185.775 27.4693 185.951 28.04 186.26 28.552C186.57 29.064 186.964 29.4693 187.444 29.768C187.935 30.056 188.468 30.2 189.044 30.2C189.62 30.2 190.164 30.0507 190.676 29.752C191.188 29.4533 191.546 29.0693 191.748 28.6L192.452 28.792C192.292 29.1867 192.036 29.5387 191.684 29.848C191.343 30.1573 190.938 30.4027 190.468 30.584C190.01 30.7547 189.524 30.84 189.012 30.84ZM185.7 26.216H192.276C192.234 25.5653 192.063 24.9893 191.764 24.488C191.466 23.9867 191.071 23.592 190.58 23.304C190.1 23.016 189.567 22.872 188.98 22.872C188.394 22.872 187.86 23.016 187.38 23.304C186.9 23.592 186.511 23.9867 186.212 24.488C185.914 24.9893 185.743 25.5653 185.7 26.216ZM205.714 30.68H204.914V26.04C204.914 24.9733 204.759 24.1947 204.45 23.704C204.151 23.2027 203.671 22.952 203.01 22.952C202.541 22.952 202.077 23.064 201.618 23.288C201.17 23.512 200.775 23.8213 200.434 24.216C200.103 24.6 199.863 25.0373 199.714 25.528V30.68H198.914V22.36H199.666V24.344C199.89 23.9173 200.189 23.5493 200.562 23.24C200.935 22.92 201.351 22.6693 201.81 22.488C202.269 22.3067 202.743 22.216 203.234 22.216C203.693 22.216 204.077 22.3013 204.386 22.472C204.706 22.632 204.962 22.8667 205.154 23.176C205.357 23.4853 205.501 23.8693 205.586 24.328C205.671 24.7867 205.714 25.3093 205.714 25.896V30.68ZM211.669 30.84C211.082 30.84 210.538 30.728 210.037 30.504C209.535 30.2693 209.098 29.9547 208.725 29.56C208.362 29.1547 208.074 28.6907 207.861 28.168C207.658 27.6347 207.557 27.0747 207.557 26.488C207.557 25.6987 207.733 24.984 208.085 24.344C208.437 23.704 208.922 23.192 209.541 22.808C210.159 22.4133 210.853 22.216 211.621 22.216C212.41 22.216 213.109 22.4133 213.717 22.808C214.325 23.2027 214.805 23.7253 215.157 24.376C215.519 25.016 215.701 25.72 215.701 26.488C215.701 26.552 215.701 26.616 215.701 26.68C215.701 26.744 215.695 26.7973 215.685 26.84H208.389C208.431 27.4693 208.607 28.04 208.917 28.552C209.226 29.064 209.621 29.4693 210.101 29.768C210.591 30.056 211.125 30.2 211.701 30.2C212.277 30.2 212.821 30.0507 213.333 29.752C213.845 29.4533 214.202 29.0693 214.405 28.6L215.109 28.792C214.949 29.1867 214.693 29.5387 214.341 29.848C213.999 30.1573 213.594 30.4027 213.125 30.584C212.666 30.7547 212.181 30.84 211.669 30.84ZM208.357 26.216H214.933C214.89 25.5653 214.719 24.9893 214.421 24.488C214.122 23.9867 213.727 23.592 213.237 23.304C212.757 23.016 212.223 22.872 211.637 22.872C211.05 22.872 210.517 23.016 210.037 23.304C209.557 23.592 209.167 23.9867 208.869 24.488C208.57 24.9893 208.399 25.5653 208.357 26.216ZM217.1 22.36L219.756 25.8L219.884 26.024L220.012 25.8L222.652 22.36H223.58L220.348 26.536L223.564 30.68H222.636L220.012 27.256L219.884 27.048L219.756 27.256L217.116 30.68H216.204L219.404 26.536L216.188 22.36H217.1ZM228.813 30.28C228.76 30.3013 228.653 30.3547 228.493 30.44C228.333 30.5253 228.131 30.6053 227.885 30.68C227.64 30.744 227.368 30.776 227.069 30.776C226.781 30.776 226.509 30.7227 226.253 30.616C226.008 30.4987 225.811 30.328 225.661 30.104C225.512 29.88 225.437 29.608 225.437 29.288V23.016H224.269V22.36H225.437V19.512H226.237V22.36H228.173V23.016H226.237V29.096C226.259 29.4053 226.371 29.64 226.573 29.8C226.776 29.9493 227.011 30.024 227.277 30.024C227.608 30.024 227.896 29.9707 228.141 29.864C228.387 29.7467 228.531 29.672 228.573 29.64L228.813 30.28ZM236.96 30.84C236.298 30.84 235.685 30.728 235.12 30.504C234.554 30.28 234.058 29.9387 233.632 29.48L234 28.92C234.458 29.3573 234.922 29.6773 235.392 29.88C235.861 30.072 236.373 30.168 236.928 30.168C237.642 30.168 238.218 30.0187 238.656 29.72C239.104 29.4213 239.328 29.0053 239.328 28.472C239.328 28.1093 239.221 27.832 239.008 27.64C238.805 27.4373 238.506 27.2773 238.112 27.16C237.728 27.032 237.258 26.8987 236.704 26.76C236.138 26.6107 235.658 26.456 235.264 26.296C234.88 26.136 234.592 25.928 234.4 25.672C234.208 25.416 234.112 25.0693 234.112 24.632C234.112 24.088 234.245 23.64 234.512 23.288C234.789 22.9253 235.157 22.6587 235.616 22.488C236.085 22.3067 236.602 22.216 237.168 22.216C237.818 22.216 238.384 22.3227 238.864 22.536C239.354 22.7493 239.728 23.032 239.984 23.384L239.552 23.896C239.285 23.5547 238.938 23.304 238.512 23.144C238.085 22.9733 237.616 22.888 237.104 22.888C236.72 22.888 236.357 22.9413 236.016 23.048C235.674 23.1547 235.397 23.3307 235.184 23.576C234.981 23.8107 234.88 24.1307 234.88 24.536C234.88 24.856 234.954 25.1067 235.104 25.288C235.264 25.4693 235.498 25.6187 235.808 25.736C236.117 25.8427 236.501 25.96 236.96 26.088C237.61 26.248 238.17 26.4133 238.64 26.584C239.109 26.7547 239.472 26.9787 239.728 27.256C239.984 27.5227 240.112 27.9013 240.112 28.392C240.112 29.1493 239.824 29.7467 239.248 30.184C238.672 30.6213 237.909 30.84 236.96 30.84ZM245.704 30.28C245.651 30.3013 245.544 30.3547 245.384 30.44C245.224 30.5253 245.021 30.6053 244.776 30.68C244.531 30.744 244.259 30.776 243.96 30.776C243.672 30.776 243.4 30.7227 243.144 30.616C242.899 30.4987 242.701 30.328 242.552 30.104C242.403 29.88 242.328 29.608 242.328 29.288V23.016H241.16V22.36H242.328V19.512H243.128V22.36H245.064V23.016H243.128V29.096C243.149 29.4053 243.261 29.64 243.464 29.8C243.667 29.9493 243.901 30.024 244.168 30.024C244.499 30.024 244.787 29.9707 245.032 29.864C245.277 29.7467 245.421 29.672 245.464 29.64L245.704 30.28ZM250.497 30.84C249.91 30.84 249.366 30.728 248.865 30.504C248.363 30.2693 247.926 29.9547 247.553 29.56C247.19 29.1547 246.902 28.6907 246.689 28.168C246.486 27.6347 246.385 27.0747 246.385 26.488C246.385 25.6987 246.561 24.984 246.913 24.344C247.265 23.704 247.75 23.192 248.369 22.808C248.987 22.4133 249.681 22.216 250.449 22.216C251.238 22.216 251.937 22.4133 252.545 22.808C253.153 23.2027 253.633 23.7253 253.985 24.376C254.347 25.016 254.529 25.72 254.529 26.488C254.529 26.552 254.529 26.616 254.529 26.68C254.529 26.744 254.523 26.7973 254.513 26.84H247.217C247.259 27.4693 247.435 28.04 247.745 28.552C248.054 29.064 248.449 29.4693 248.929 29.768C249.419 30.056 249.953 30.2 250.529 30.2C251.105 30.2 251.649 30.0507 252.161 29.752C252.673 29.4533 253.03 29.0693 253.233 28.6L253.937 28.792C253.777 29.1867 253.521 29.5387 253.169 29.848C252.827 30.1573 252.422 30.4027 251.953 30.584C251.494 30.7547 251.009 30.84 250.497 30.84ZM247.185 26.216H253.761C253.718 25.5653 253.547 24.9893 253.249 24.488C252.95 23.9867 252.555 23.592 252.065 23.304C251.585 23.016 251.051 22.872 250.465 22.872C249.878 22.872 249.345 23.016 248.865 23.304C248.385 23.592 247.995 23.9867 247.697 24.488C247.398 24.9893 247.227 25.5653 247.185 26.216ZM260.353 30.84C259.638 30.84 258.998 30.6533 258.433 30.28C257.878 29.896 257.43 29.432 257.089 28.888V34.088H256.289V22.36H257.025V24.024C257.366 23.4907 257.82 23.0587 258.385 22.728C258.95 22.3867 259.548 22.216 260.177 22.216C260.764 22.216 261.297 22.3387 261.777 22.584C262.257 22.8187 262.673 23.144 263.025 23.56C263.388 23.9653 263.665 24.424 263.857 24.936C264.06 25.448 264.161 25.9813 264.161 26.536C264.161 27.304 264.001 28.0187 263.681 28.68C263.361 29.3307 262.913 29.8533 262.337 30.248C261.772 30.6427 261.11 30.84 260.353 30.84ZM260.161 30.12C260.652 30.12 261.089 30.0187 261.473 29.816C261.868 29.6133 262.204 29.3413 262.481 29C262.758 28.6587 262.972 28.2747 263.121 27.848C263.27 27.4213 263.345 26.984 263.345 26.536C263.345 26.056 263.26 25.6027 263.089 25.176C262.918 24.7387 262.678 24.3547 262.369 24.024C262.07 23.6933 261.718 23.432 261.313 23.24C260.918 23.0373 260.486 22.936 260.017 22.936C259.729 22.936 259.42 22.9947 259.089 23.112C258.769 23.2293 258.46 23.3947 258.161 23.608C257.873 23.8213 257.633 24.0667 257.441 24.344C257.249 24.6107 257.132 24.888 257.089 25.176V27.912C257.281 28.3173 257.526 28.6907 257.825 29.032C258.134 29.3627 258.492 29.6293 258.897 29.832C259.302 30.024 259.724 30.12 260.161 30.12ZM270.195 30.68V22.36H270.995V30.68H270.195ZM270.195 20.472V19H270.995V20.472H270.195ZM280.308 30.68H279.508V26.04C279.508 24.9733 279.353 24.1947 279.044 23.704C278.745 23.2027 278.265 22.952 277.604 22.952C277.134 22.952 276.67 23.064 276.212 23.288C275.764 23.512 275.369 23.8213 275.028 24.216C274.697 24.6 274.457 25.0373 274.308 25.528V30.68H273.508V22.36H274.26V24.344C274.484 23.9173 274.782 23.5493 275.156 23.24C275.529 22.92 275.945 22.6693 276.404 22.488C276.862 22.3067 277.337 22.216 277.828 22.216C278.286 22.216 278.67 22.3013 278.98 22.472C279.3 22.632 279.556 22.8667 279.748 23.176C279.95 23.4853 280.094 23.8693 280.18 24.328C280.265 24.7867 280.308 25.3093 280.308 25.896V30.68ZM286.943 33.496C287.113 33.5067 287.263 33.5067 287.391 33.496C287.529 33.496 287.631 33.4747 287.695 33.432C287.791 33.4 287.887 33.3147 287.983 33.176C288.089 33.048 288.228 32.7867 288.399 32.392C288.569 32.008 288.809 31.4373 289.119 30.68L285.407 22.36H286.255L289.551 29.832L292.607 22.36H293.423L288.863 33.304C288.799 33.4747 288.708 33.624 288.591 33.752C288.484 33.8907 288.351 33.9973 288.191 34.072C288.031 34.1573 287.839 34.2053 287.615 34.216C287.519 34.2267 287.417 34.232 287.311 34.232C287.204 34.2427 287.081 34.2427 286.943 34.232V33.496ZM298.23 30.84C297.643 30.84 297.099 30.728 296.598 30.504C296.107 30.28 295.681 29.9707 295.318 29.576C294.955 29.1707 294.673 28.7067 294.47 28.184C294.267 27.6613 294.166 27.112 294.166 26.536C294.166 25.9493 294.267 25.4 294.47 24.888C294.673 24.3653 294.955 23.9067 295.318 23.512C295.691 23.1067 296.123 22.792 296.614 22.568C297.115 22.3333 297.654 22.216 298.23 22.216C298.806 22.216 299.339 22.3333 299.83 22.568C300.321 22.792 300.753 23.1067 301.126 23.512C301.499 23.9067 301.787 24.3653 301.99 24.888C302.193 25.4 302.294 25.9493 302.294 26.536C302.294 27.112 302.193 27.6613 301.99 28.184C301.787 28.7067 301.499 29.1707 301.126 29.576C300.763 29.9707 300.331 30.28 299.83 30.504C299.339 30.728 298.806 30.84 298.23 30.84ZM294.966 26.568C294.966 27.2187 295.11 27.816 295.398 28.36C295.697 28.8933 296.091 29.32 296.582 29.64C297.073 29.96 297.617 30.12 298.214 30.12C298.811 30.12 299.355 29.96 299.846 29.64C300.347 29.3093 300.742 28.872 301.03 28.328C301.329 27.7733 301.478 27.1707 301.478 26.52C301.478 25.8693 301.329 25.272 301.03 24.728C300.742 24.184 300.347 23.752 299.846 23.432C299.355 23.1013 298.817 22.936 298.23 22.936C297.633 22.936 297.089 23.1013 296.598 23.432C296.107 23.7627 295.713 24.2 295.414 24.744C295.115 25.288 294.966 25.896 294.966 26.568ZM304.131 27.16V22.36H304.931V27.048C304.931 28.0827 305.101 28.856 305.443 29.368C305.795 29.8693 306.323 30.12 307.027 30.12C307.496 30.12 307.944 30.0187 308.371 29.816C308.808 29.6027 309.192 29.3093 309.523 28.936C309.853 28.552 310.099 28.1093 310.259 27.608V22.36H311.059V29.624C311.059 29.752 311.085 29.848 311.139 29.912C311.203 29.976 311.288 30.0133 311.395 30.024V30.68C311.288 30.6907 311.203 30.696 311.139 30.696C311.085 30.696 311.037 30.6907 310.995 30.68C310.813 30.6587 310.664 30.584 310.547 30.456C310.429 30.3173 310.365 30.152 310.355 29.96L310.339 28.712C309.976 29.3733 309.475 29.896 308.835 30.28C308.205 30.6533 307.523 30.84 306.787 30.84C305.912 30.84 305.251 30.5307 304.803 29.912C304.355 29.2933 304.131 28.376 304.131 27.16ZM317.537 23.08C316.791 23.1013 316.135 23.3253 315.569 23.752C315.015 24.168 314.625 24.744 314.401 25.48V30.68H313.601V22.36H314.369V24.408C314.657 23.8213 315.041 23.3467 315.521 22.984C316.001 22.6107 316.508 22.3973 317.041 22.344C317.148 22.3333 317.244 22.328 317.329 22.328C317.415 22.328 317.484 22.328 317.537 22.328V23.08ZM326.309 30.84C325.733 30.84 325.195 30.728 324.693 30.504C324.192 30.2693 323.755 29.9547 323.381 29.56C323.008 29.1547 322.715 28.6907 322.501 28.168C322.299 27.6453 322.197 27.0853 322.197 26.488C322.197 25.688 322.373 24.968 322.725 24.328C323.077 23.688 323.563 23.176 324.181 22.792C324.8 22.408 325.504 22.216 326.293 22.216C327.051 22.216 327.717 22.392 328.293 22.744C328.869 23.0853 329.301 23.5547 329.589 24.152L328.805 24.408C328.56 23.9493 328.208 23.592 327.749 23.336C327.301 23.0693 326.805 22.936 326.261 22.936C325.653 22.936 325.104 23.0907 324.613 23.4C324.123 23.7093 323.728 24.136 323.429 24.68C323.141 25.2133 322.997 25.816 322.997 26.488C322.997 27.1493 323.147 27.7573 323.445 28.312C323.744 28.8667 324.139 29.3093 324.629 29.64C325.131 29.96 325.68 30.12 326.277 30.12C326.661 30.12 327.035 30.0507 327.397 29.912C327.771 29.7627 328.091 29.5707 328.357 29.336C328.635 29.1013 328.816 28.8507 328.901 28.584L329.685 28.808C329.547 29.2027 329.307 29.5547 328.965 29.864C328.624 30.1627 328.224 30.4027 327.765 30.584C327.317 30.7547 326.832 30.84 326.309 30.84ZM330.804 28.28C330.804 27.7787 330.953 27.3467 331.252 26.984C331.551 26.6107 331.961 26.3227 332.484 26.12C333.007 25.9067 333.609 25.8 334.292 25.8C334.719 25.8 335.161 25.8373 335.62 25.912C336.079 25.9867 336.489 26.088 336.852 26.216V25.432C336.852 24.664 336.628 24.0507 336.18 23.592C335.743 23.1333 335.135 22.904 334.356 22.904C333.94 22.904 333.508 22.9893 333.06 23.16C332.612 23.3307 332.153 23.576 331.684 23.896L331.348 23.32C331.892 22.9573 332.415 22.6853 332.916 22.504C333.428 22.312 333.935 22.216 334.436 22.216C335.428 22.216 336.212 22.5093 336.788 23.096C337.364 23.6827 337.652 24.4827 337.652 25.496V29.624C337.652 29.752 337.679 29.848 337.732 29.912C337.796 29.976 337.887 30.0133 338.004 30.024V30.68C337.908 30.6907 337.828 30.696 337.764 30.696C337.7 30.696 337.647 30.696 337.604 30.696C337.401 30.664 337.241 30.5787 337.124 30.44C337.017 30.3013 336.959 30.1467 336.948 29.976V29.32C336.564 29.8 336.068 30.1733 335.46 30.44C334.863 30.7067 334.233 30.84 333.572 30.84C333.049 30.84 332.575 30.728 332.148 30.504C331.732 30.28 331.401 29.976 331.156 29.592C330.921 29.1973 330.804 28.76 330.804 28.28ZM336.532 28.968C336.639 28.8293 336.719 28.696 336.772 28.568C336.825 28.44 336.852 28.3227 336.852 28.216V26.84C336.468 26.6907 336.068 26.5787 335.652 26.504C335.236 26.4293 334.809 26.392 334.372 26.392C333.54 26.392 332.863 26.5573 332.34 26.888C331.828 27.2187 331.572 27.6667 331.572 28.232C331.572 28.584 331.663 28.9093 331.844 29.208C332.025 29.5067 332.276 29.7467 332.596 29.928C332.927 30.1093 333.305 30.2 333.732 30.2C334.329 30.2 334.879 30.088 335.38 29.864C335.892 29.6293 336.276 29.3307 336.532 28.968ZM344.022 23.08C343.275 23.1013 342.619 23.3253 342.054 23.752C341.499 24.168 341.11 24.744 340.886 25.48V30.68H340.086V22.36H340.854V24.408C341.142 23.8213 341.526 23.3467 342.006 22.984C342.486 22.6107 342.992 22.3973 343.526 22.344C343.632 22.3333 343.728 22.328 343.814 22.328C343.899 22.328 343.968 22.328 344.022 22.328V23.08ZM348.747 30.84C348.16 30.84 347.616 30.728 347.115 30.504C346.613 30.2693 346.176 29.9547 345.803 29.56C345.44 29.1547 345.152 28.6907 344.939 28.168C344.736 27.6347 344.635 27.0747 344.635 26.488C344.635 25.6987 344.811 24.984 345.163 24.344C345.515 23.704 346 23.192 346.619 22.808C347.237 22.4133 347.931 22.216 348.699 22.216C349.488 22.216 350.187 22.4133 350.795 22.808C351.403 23.2027 351.883 23.7253 352.235 24.376C352.597 25.016 352.779 25.72 352.779 26.488C352.779 26.552 352.779 26.616 352.779 26.68C352.779 26.744 352.773 26.7973 352.763 26.84H345.467C345.509 27.4693 345.685 28.04 345.995 28.552C346.304 29.064 346.699 29.4693 347.179 29.768C347.669 30.056 348.203 30.2 348.779 30.2C349.355 30.2 349.899 30.0507 350.411 29.752C350.923 29.4533 351.28 29.0693 351.483 28.6L352.187 28.792C352.027 29.1867 351.771 29.5387 351.419 29.848C351.077 30.1573 350.672 30.4027 350.203 30.584C349.744 30.7547 349.259 30.84 348.747 30.84ZM345.435 26.216H352.011C351.968 25.5653 351.797 24.9893 351.499 24.488C351.2 23.9867 350.805 23.592 350.315 23.304C349.835 23.016 349.301 22.872 348.715 22.872C348.128 22.872 347.595 23.016 347.115 23.304C346.635 23.592 346.245 23.9867 345.947 24.488C345.648 24.9893 345.477 25.5653 345.435 26.216ZM358.075 30.84C357.488 30.84 356.944 30.728 356.443 30.504C355.942 30.2693 355.504 29.9547 355.131 29.56C354.768 29.1547 354.48 28.6907 354.267 28.168C354.064 27.6347 353.963 27.0747 353.963 26.488C353.963 25.6987 354.139 24.984 354.491 24.344C354.843 23.704 355.328 23.192 355.947 22.808C356.566 22.4133 357.259 22.216 358.027 22.216C358.816 22.216 359.515 22.4133 360.123 22.808C360.731 23.2027 361.211 23.7253 361.563 24.376C361.926 25.016 362.107 25.72 362.107 26.488C362.107 26.552 362.107 26.616 362.107 26.68C362.107 26.744 362.102 26.7973 362.091 26.84H354.795C354.838 27.4693 355.014 28.04 355.323 28.552C355.632 29.064 356.027 29.4693 356.507 29.768C356.998 30.056 357.531 30.2 358.107 30.2C358.683 30.2 359.227 30.0507 359.739 29.752C360.251 29.4533 360.608 29.0693 360.811 28.6L361.515 28.792C361.355 29.1867 361.099 29.5387 360.747 29.848C360.406 30.1573 360 30.4027 359.531 30.584C359.072 30.7547 358.587 30.84 358.075 30.84ZM354.763 26.216H361.339C361.296 25.5653 361.126 24.9893 360.827 24.488C360.528 23.9867 360.134 23.592 359.643 23.304C359.163 23.016 358.63 22.872 358.043 22.872C357.456 22.872 356.923 23.016 356.443 23.304C355.963 23.592 355.574 23.9867 355.275 24.488C354.976 24.9893 354.806 25.5653 354.763 26.216ZM367.803 23.08C367.056 23.1013 366.4 23.3253 365.835 23.752C365.28 24.168 364.891 24.744 364.667 25.48V30.68H363.867V22.36H364.635V24.408C364.923 23.8213 365.307 23.3467 365.787 22.984C366.267 22.6107 366.774 22.3973 367.307 22.344C367.414 22.3333 367.51 22.328 367.595 22.328C367.68 22.328 367.75 22.328 367.803 22.328V23.08ZM371.631 33.512C371.3 33.512 370.986 33.464 370.687 33.368C370.388 33.2827 370.122 33.1333 369.887 32.92L370.319 32.392C370.49 32.5413 370.687 32.6427 370.911 32.696C371.124 32.7493 371.338 32.776 371.551 32.776C371.818 32.776 372.074 32.7067 372.319 32.568C372.564 32.4293 372.767 32.2373 372.927 31.992C373.087 31.7467 373.167 31.4693 373.167 31.16V22.36H373.967V31.128C373.967 31.5867 373.85 31.9973 373.615 32.36C373.391 32.7227 373.098 33.0053 372.735 33.208C372.383 33.4107 372.015 33.512 371.631 33.512ZM373.167 20.472V19H373.967V20.472H373.167ZM379.949 30.84C379.362 30.84 378.818 30.728 378.317 30.504C377.826 30.28 377.399 29.9707 377.037 29.576C376.674 29.1707 376.391 28.7067 376.189 28.184C375.986 27.6613 375.885 27.112 375.885 26.536C375.885 25.9493 375.986 25.4 376.189 24.888C376.391 24.3653 376.674 23.9067 377.037 23.512C377.41 23.1067 377.842 22.792 378.333 22.568C378.834 22.3333 379.373 22.216 379.949 22.216C380.525 22.216 381.058 22.3333 381.549 22.568C382.039 22.792 382.471 23.1067 382.845 23.512C383.218 23.9067 383.506 24.3653 383.709 24.888C383.911 25.4 384.013 25.9493 384.013 26.536C384.013 27.112 383.911 27.6613 383.709 28.184C383.506 28.7067 383.218 29.1707 382.845 29.576C382.482 29.9707 382.05 30.28 381.549 30.504C381.058 30.728 380.525 30.84 379.949 30.84ZM376.685 26.568C376.685 27.2187 376.829 27.816 377.117 28.36C377.415 28.8933 377.81 29.32 378.301 29.64C378.791 29.96 379.335 30.12 379.933 30.12C380.53 30.12 381.074 29.96 381.565 29.64C382.066 29.3093 382.461 28.872 382.749 28.328C383.047 27.7733 383.197 27.1707 383.197 26.52C383.197 25.8693 383.047 25.272 382.749 24.728C382.461 24.184 382.066 23.752 381.565 23.432C381.074 23.1013 380.535 22.936 379.949 22.936C379.351 22.936 378.807 23.1013 378.317 23.432C377.826 23.7627 377.431 24.2 377.133 24.744C376.834 25.288 376.685 25.896 376.685 26.568ZM385.85 27.16V22.36H386.65V27.048C386.65 28.0827 386.82 28.856 387.162 29.368C387.514 29.8693 388.042 30.12 388.746 30.12C389.215 30.12 389.663 30.0187 390.09 29.816C390.527 29.6027 390.911 29.3093 391.242 28.936C391.572 28.552 391.818 28.1093 391.978 27.608V22.36H392.778V29.624C392.778 29.752 392.804 29.848 392.858 29.912C392.922 29.976 393.007 30.0133 393.114 30.024V30.68C393.007 30.6907 392.922 30.696 392.858 30.696C392.804 30.696 392.756 30.6907 392.714 30.68C392.532 30.6587 392.383 30.584 392.266 30.456C392.148 30.3173 392.084 30.152 392.074 29.96L392.058 28.712C391.695 29.3733 391.194 29.896 390.554 30.28C389.924 30.6533 389.242 30.84 388.506 30.84C387.631 30.84 386.97 30.5307 386.522 29.912C386.074 29.2933 385.85 28.376 385.85 27.16ZM399.256 23.08C398.509 23.1013 397.853 23.3253 397.288 23.752C396.733 24.168 396.344 24.744 396.12 25.48V30.68H395.32V22.36H396.088V24.408C396.376 23.8213 396.76 23.3467 397.24 22.984C397.72 22.6107 398.227 22.3973 398.76 22.344C398.867 22.3333 398.963 22.328 399.048 22.328C399.133 22.328 399.203 22.328 399.256 22.328V23.08ZM407.573 30.68H406.773V26.04C406.773 24.9733 406.619 24.1947 406.309 23.704C406.011 23.2027 405.531 22.952 404.869 22.952C404.4 22.952 403.936 23.064 403.477 23.288C403.029 23.512 402.635 23.8213 402.293 24.216C401.963 24.6 401.723 25.0373 401.573 25.528V30.68H400.773V22.36H401.525V24.344C401.749 23.9173 402.048 23.5493 402.421 23.24C402.795 22.92 403.211 22.6693 403.669 22.488C404.128 22.3067 404.603 22.216 405.093 22.216C405.552 22.216 405.936 22.3013 406.245 22.472C406.565 22.632 406.821 22.8667 407.013 23.176C407.216 23.4853 407.36 23.8693 407.445 24.328C407.531 24.7867 407.573 25.3093 407.573 25.896V30.68ZM413.528 30.84C412.941 30.84 412.397 30.728 411.896 30.504C411.395 30.2693 410.957 29.9547 410.584 29.56C410.221 29.1547 409.933 28.6907 409.72 28.168C409.517 27.6347 409.416 27.0747 409.416 26.488C409.416 25.6987 409.592 24.984 409.944 24.344C410.296 23.704 410.781 23.192 411.4 22.808C412.019 22.4133 412.712 22.216 413.48 22.216C414.269 22.216 414.968 22.4133 415.576 22.808C416.184 23.2027 416.664 23.7253 417.016 24.376C417.379 25.016 417.56 25.72 417.56 26.488C417.56 26.552 417.56 26.616 417.56 26.68C417.56 26.744 417.555 26.7973 417.544 26.84H410.248C410.291 27.4693 410.467 28.04 410.776 28.552C411.085 29.064 411.48 29.4693 411.96 29.768C412.451 30.056 412.984 30.2 413.56 30.2C414.136 30.2 414.68 30.0507 415.192 29.752C415.704 29.4533 416.061 29.0693 416.264 28.6L416.968 28.792C416.808 29.1867 416.552 29.5387 416.2 29.848C415.859 30.1573 415.453 30.4027 414.984 30.584C414.525 30.7547 414.04 30.84 413.528 30.84ZM410.216 26.216H416.792C416.749 25.5653 416.579 24.9893 416.28 24.488C415.981 23.9867 415.587 23.592 415.096 23.304C414.616 23.016 414.083 22.872 413.496 22.872C412.909 22.872 412.376 23.016 411.896 23.304C411.416 23.592 411.027 23.9867 410.728 24.488C410.429 24.9893 410.259 25.5653 410.216 26.216ZM419.661 33.496C419.832 33.5067 419.981 33.5067 420.109 33.496C420.248 33.496 420.349 33.4747 420.413 33.432C420.509 33.4 420.605 33.3147 420.701 33.176C420.808 33.048 420.947 32.7867 421.117 32.392C421.288 32.008 421.528 31.4373 421.837 30.68L418.125 22.36H418.973L422.269 29.832L425.325 22.36H426.141L421.581 33.304C421.517 33.4747 421.427 33.624 421.309 33.752C421.203 33.8907 421.069 33.9973 420.909 34.072C420.749 34.1573 420.557 34.2053 420.333 34.216C420.237 34.2267 420.136 34.232 420.029 34.232C419.923 34.2427 419.8 34.2427 419.661 34.232V33.496ZM427.5 30.68V29.32H428.204V30.68H427.5Z" fill="white"/>
</svg>
