<svg width="33" height="32" viewBox="0 0 33 32" fill="none" xmlns="http://www.w3.org/2000/svg">
<g clip-path="url(#clip0_26_464)">
<path d="M9.66961 0.112007C7.96721 0.192327 6.80465 0.464007 5.78833 0.863367C4.73649 1.27329 3.84497 1.82337 2.95793 2.71361C2.07089 3.60385 1.52465 4.49601 1.11761 5.54945C0.723689 6.56801 0.456809 7.73153 0.381609 9.43489C0.306409 11.1382 0.289769 11.6858 0.298089 16.0307C0.306409 20.3757 0.325609 20.9203 0.408169 22.6272C0.489449 24.3293 0.760169 25.4915 1.15953 26.5082C1.57009 27.56 2.11953 28.4512 3.01009 29.3386C3.90065 30.2259 4.79217 30.7709 5.84817 31.1786C6.86577 31.5718 8.02961 31.84 9.73265 31.9146C11.4357 31.9891 11.9838 32.0064 16.3275 31.9981C20.6712 31.9898 21.2181 31.9706 22.9247 31.8896C24.6312 31.8086 25.7874 31.536 26.8043 31.1386C27.8562 30.727 28.748 30.1786 29.6347 29.2877C30.5215 28.3968 31.0674 27.504 31.4741 26.4499C31.8683 25.4323 32.1362 24.2685 32.2101 22.5667C32.2846 20.8589 32.3022 20.3136 32.2939 15.9693C32.2856 11.625 32.2661 11.0803 32.1851 9.37409C32.1042 7.66785 31.8331 6.50913 31.4341 5.49185C31.0229 4.44001 30.4741 3.54945 29.5838 2.66145C28.6936 1.77345 27.8002 1.22785 26.7464 0.822087C25.7282 0.428167 24.565 0.159687 22.8619 0.086087C21.1589 0.012487 20.6107 -0.00639301 16.2654 0.00192699C11.9202 0.010247 11.3762 0.028807 9.66961 0.112007ZM9.85649 29.0362C8.29649 28.9683 7.44945 28.7091 6.88497 28.4922C6.13745 28.2042 5.60497 27.856 5.04241 27.2989C4.47985 26.7418 4.13425 26.2074 3.84241 25.4614C3.62321 24.897 3.35921 24.0509 3.28625 22.4909C3.20689 20.8048 3.19025 20.2986 3.18097 16.0269C3.17169 11.7552 3.18801 11.2496 3.26193 9.56289C3.32849 8.00417 3.58929 7.15617 3.80593 6.59201C4.09393 5.84353 4.44081 5.31201 4.99921 4.74977C5.55761 4.18753 6.09041 3.84129 6.83697 3.54945C7.40081 3.32929 8.24689 3.06753 9.80625 2.99329C11.4936 2.91329 11.9992 2.89729 16.2702 2.88801C20.5413 2.87873 21.0482 2.89473 22.7362 2.96897C24.2949 3.03681 25.1432 3.29505 25.7067 3.51297C26.4546 3.80097 26.9867 4.14689 27.549 4.70625C28.1112 5.26561 28.4578 5.79649 28.7496 6.54465C28.9701 7.10689 29.2318 7.95265 29.3054 9.51297C29.3858 11.2003 29.404 11.7062 29.4117 15.977C29.4194 20.2477 29.4043 20.7549 29.3304 22.441C29.2622 24.001 29.0037 24.8483 28.7864 25.4134C28.4984 26.1606 28.1512 26.6934 27.5925 27.2554C27.0338 27.8173 26.5016 28.1635 25.7547 28.4554C25.1915 28.6752 24.3445 28.9376 22.7864 29.0118C21.099 29.0912 20.5935 29.1078 16.3208 29.1171C12.0482 29.1264 11.5442 29.1091 9.85681 29.0362M22.9 7.44865C22.9006 7.82841 23.0139 8.19946 23.2254 8.51487C23.4369 8.83027 23.7372 9.07586 24.0884 9.22058C24.4395 9.36529 24.8256 9.40263 25.198 9.32788C25.5703 9.25312 25.9121 9.06962 26.1801 8.8006C26.4482 8.53157 26.6304 8.18909 26.7038 7.81649C26.7772 7.44388 26.7384 7.05787 26.5924 6.70729C26.4464 6.35671 26.1998 6.05731 25.8836 5.84694C25.5674 5.63657 25.1959 5.52469 24.8162 5.52545C24.3071 5.52646 23.8192 5.72964 23.4599 6.09029C23.1005 6.45094 22.8992 6.93954 22.9 7.44865ZM8.08081 16.016C8.08977 20.5536 11.7749 24.2237 16.3115 24.215C20.8482 24.2064 24.5208 20.5216 24.5122 15.984C24.5035 11.4464 20.8174 7.77537 16.2802 7.78433C11.7429 7.79329 8.07217 11.479 8.08081 16.016ZM10.9627 16.0102C10.9606 14.9554 11.2714 13.9236 11.8557 13.0454C12.44 12.1671 13.2716 11.4819 14.2454 11.0763C15.2191 10.6707 16.2913 10.5629 17.3263 10.7667C18.3613 10.9704 19.3126 11.4765 20.06 12.2209C20.8074 12.9653 21.3172 13.9147 21.525 14.9488C21.7329 15.983 21.6294 17.0556 21.2276 18.031C20.8259 19.0063 20.144 19.8406 19.268 20.4284C18.3921 21.0162 17.3616 21.331 16.3067 21.3331C15.6063 21.3346 14.9125 21.1981 14.2648 20.9314C13.6172 20.6646 13.0284 20.273 12.5321 19.7787C12.0359 19.2844 11.6419 18.6972 11.3726 18.0506C11.1033 17.404 10.964 16.7107 10.9627 16.0102Z" fill="white"/>
</g>
<defs>
<clipPath id="clip0_26_464">
<rect width="31.9997" height="31.9999" fill="white" transform="translate(0.296143)"/>
</clipPath>
</defs>
</svg>
