<svg width="37" height="26" viewBox="0 0 37 26" fill="none" xmlns="http://www.w3.org/2000/svg">
<g clip-path="url(#clip0_26_460)">
<path d="M14.6143 18.3343V7.66561L24.0234 13.0002L14.6143 18.3343ZM35.5438 4.30867C35.1298 2.75498 33.9099 1.53151 32.3611 1.11628C29.5537 0.36165 18.2961 0.36165 18.2961 0.36165C18.2961 0.36165 7.03863 0.36165 4.23117 1.11628C2.68229 1.53151 1.46237 2.75498 1.04841 4.30867C0.296143 7.12463 0.296143 12.9999 0.296143 12.9999C0.296143 12.9999 0.296143 18.8752 1.04841 21.6912C1.46237 23.2449 2.68229 24.4684 4.23117 24.8838C7.03863 25.6382 18.2961 25.6382 18.2961 25.6382C18.2961 25.6382 29.5537 25.6382 32.3611 24.8838C33.9099 24.4684 35.1298 23.2449 35.5438 21.6912C36.2961 18.8752 36.2961 12.9999 36.2961 12.9999C36.2961 12.9999 36.2961 7.12463 35.5438 4.30867Z" fill="white"/>
</g>
<defs>
<clipPath id="clip0_26_460">
<rect width="36" height="25.2766" fill="white" transform="translate(0.296143 0.361649)"/>
</clipPath>
</defs>
</svg>
