<svg width="33" height="32" viewBox="0 0 33 32" fill="none" xmlns="http://www.w3.org/2000/svg">
<g clip-path="url(#clip0_26_466)">
<path d="M32.2958 16.0971C32.2958 7.26058 25.1323 0.0971413 16.2958 0.0971413C7.45921 0.0971413 0.295776 7.26058 0.295776 16.0971C0.295776 24.0832 6.14675 30.7025 13.7958 31.9028V20.7221H9.73328V16.0971H13.7958V12.5721C13.7958 8.56214 16.1845 6.34714 19.8392 6.34714C21.5897 6.34714 23.4208 6.65964 23.4208 6.65964V10.5971H21.4032C19.4156 10.5971 18.7958 11.8305 18.7958 13.0958V16.0971H23.2333L22.5239 20.7221H18.7958V31.9028C26.4448 30.7025 32.2958 24.0832 32.2958 16.0971Z" fill="white"/>
</g>
<defs>
<clipPath id="clip0_26_466">
<rect width="32" height="31.8056" fill="white" transform="translate(0.295776 0.0971375)"/>
</clipPath>
</defs>
</svg>
